<svg xmlns="http://www.w3.org/2000/svg" xmlns:v="https://svgstorm.com"
viewBox = "0 0 1024 1024"
width="1024"
height="1024">
<g fill="None" fill-opacity="0.0" stroke="#FEFEFE" stroke-opacity="1.00" stroke-width="0.3"><path d="
M 0.00 1024.00 
L 1024.00 1024.00
L 1024.00 0.00
L 0.00 0.00
L 0.00 1024.00
M 700.00 97.00 
C 712.85 98.24 727.44 101.55 739.68 106.32 C 751.92 111.10 761.31 115.77 772.25 123.75 C 783.18 131.74 789.16 135.01 799.25 146.75 C 809.34 158.50 790.23 173.99 780.75 161.25 C 771.27 148.51 764.41 146.90 753.30 138.70 C 742.19 130.50 730.81 128.00 717.98 124.02 C 705.14 120.04 685.88 119.38 672.33 120.33 C 658.78 121.28 644.93 125.95 633.32 130.32 C 621.71 134.69 611.80 143.34 602.75 149.75 C 593.71 156.16 583.09 174.18 572.25 162.75 C 561.41 151.33 577.96 140.84 586.25 133.25 C 594.54 125.65 605.06 118.48 616.23 113.23 C 627.40 107.98 639.77 102.23 653.02 100.02 C 666.27 97.82 685.47 95.59 700.00 97.00
M 736.00 177.00 
C 735.23 176.79 732.55 177.90 731.00 178.00
C 725.39 167.53 709.89 170.51 702.00 163.00
C 690.15 160.59 672.50 160.42 661.78 164.78 C 651.06 169.14 638.80 172.47 631.25 180.25 C 623.70 188.03 609.11 200.27 602.23 187.77 C 595.35 175.27 611.07 168.37 618.75 160.75 C 626.42 153.12 638.48 149.05 649.22 144.22 C 659.96 139.39 677.24 139.32 690.00 139.00 C 702.76 138.68 716.62 143.00 728.07 146.93 C 739.52 150.85 747.71 158.41 757.25 164.75 C 766.79 171.09 776.05 185.21 764.30 192.30 C 752.56 199.40 744.19 182.68 736.00 177.00
M 388.00 164.00 
C 391.34 168.78 386.56 178.85 388.00 185.00 C 389.44 191.15 387.33 200.29 388.00 207.00 C 388.67 213.71 387.72 220.99 388.00 228.00 C 388.28 235.01 387.90 242.84 388.00 250.00 C 388.10 257.16 388.00 264.79 388.00 272.00
C 391.89 312.19 388.10 353.85 389.00 395.00 C 389.90 436.15 389.00 478.72 389.00 520.00
C 389.00 533.33 389.00 546.67 389.00 560.00
C 389.00 583.41 395.15 610.08 407.92 629.08 C 420.70 648.07 434.36 661.00 454.23 671.77 C 474.10 682.54 504.89 688.14 528.00 684.00 C 551.12 679.86 570.88 671.44 588.75 655.75 C 606.62 640.07 616.89 627.12 624.78 603.78 C 632.66 580.43 631.46 547.84 631.00 521.00 C 630.54 494.16 631.89 460.07 631.00 433.00 C 630.11 405.93 632.89 369.70 631.00 344.00 C 629.11 318.30 640.79 291.23 669.00 293.00
C 673.41 285.04 669.70 271.37 671.00 262.00 C 672.30 252.63 668.11 237.73 673.26 230.26 C 678.40 222.78 690.36 222.09 695.75 230.25 C 701.14 238.40 693.49 248.27 694.00 258.00 C 694.51 267.73 694.01 281.87 694.00 292.00
C 694.00 292.50 694.00 293.00 694.00 293.00
C 711.09 291.35 728.73 293.83 738.25 309.75 C 747.77 325.67 744.76 344.76 745.00 364.00 C 745.24 383.24 744.92 405.24 745.00 425.00 C 745.08 444.76 745.04 466.11 745.00 486.00 C 744.96 505.89 745.19 527.26 745.00 547.00 C 744.81 566.74 745.47 588.82 745.00 608.00 C 744.53 627.18 744.81 647.36 749.98 664.02 C 755.14 680.68 762.79 688.71 773.75 701.25 C 784.71 713.78 807.10 714.28 802.00 735.00
C 745.00 735.00 688.00 735.00 631.00 735.00
C 630.34 696.50 632.33 656.68 630.00 619.00
C 606.07 688.86 534.23 739.15 461.00 741.00
C 453.45 741.73 444.48 741.72 437.00 741.00
C 430.55 741.00 425.76 740.45 419.33 739.67 C 412.90 738.89 410.64 738.00 403.78 736.22 C 396.92 734.45 396.14 735.01 387.98 732.02 C 379.81 729.04 368.83 725.02 360.92 721.08 C 353.02 717.13 355.72 718.57 348.30 713.70 C 340.89 708.82 333.50 703.54 326.75 697.25 C 320.00 690.96 313.75 684.31 307.75 677.25 C 301.75 670.19 296.98 661.63 292.70 653.31 C 288.41 644.98 283.71 634.35 281.68 625.32 C 279.65 616.29 279.60 617.11 278.07 609.93 C 276.54 602.75 277.80 598.92 276.67 592.33 C 275.54 585.74 276.08 579.62 276.00 573.00 C 275.92 566.38 276.03 560.51 276.00 554.00 C 275.97 547.49 276.01 541.51 276.00 535.00 C 275.99 528.49 276.01 521.51 276.00 515.00 C 275.99 508.49 276.00 502.50 276.00 496.00 C 276.00 489.50 276.00 482.48 276.00 476.00 C 276.00 469.52 276.00 463.44 276.00 457.00 C 276.00 450.56 276.00 444.47 276.00 438.00 C 276.00 431.53 276.00 424.47 276.00 418.00 C 276.00 411.53 276.00 405.43 276.00 399.00 C 276.00 392.57 276.00 386.46 276.00 380.00 C 276.00 373.54 275.99 366.46 276.00 360.00 C 276.01 353.54 275.99 347.42 276.00 341.00 C 276.01 334.58 275.97 328.44 276.00 322.00 C 276.03 315.56 275.94 308.41 276.00 302.00 C 276.06 295.59 275.85 289.30 276.00 283.00 C 276.15 276.70 276.03 269.57 275.22 263.78 C 274.41 257.98 274.10 252.34 273.01 246.99 C 271.92 241.64 270.63 236.90 269.02 231.98 C 267.42 227.05 264.81 222.70 262.70 218.30 C 260.58 213.91 257.43 211.06 254.75 207.25 C 252.08 203.44 248.86 200.67 245.75 197.25 C 242.64 193.82 237.49 191.34 234.25 188.75 C 231.02 186.15 223.76 184.74 221.32 182.68 C 218.88 180.62 218.40 166.28 220.00 164.00
C 222.90 159.86 234.56 164.20 240.00 163.00 C 245.44 161.80 254.68 163.52 261.00 163.00 C 267.32 162.48 275.27 163.18 282.00 163.00 C 288.73 162.82 297.18 163.00 304.00 163.00 C 310.82 163.00 318.33 162.79 325.00 163.00 C 331.67 163.21 339.70 162.43 346.00 163.00 C 352.30 163.57 361.55 161.70 367.00 163.00 C 372.45 164.30 385.05 159.78 388.00 164.00
M 692.00 180.00 
C 703.72 181.42 714.82 187.33 725.23 192.77 C 735.64 198.21 743.58 214.50 730.92 219.92 C 718.27 225.35 711.37 208.33 700.31 205.69 C 689.24 203.06 671.07 201.49 662.75 209.75 C 654.44 218.01 639.69 227.30 633.70 214.30 C 627.71 201.30 644.40 193.81 653.08 188.08 C 661.76 182.35 680.73 178.64 692.00 180.00
M 411.00 488.00 
C 411.00 453.73 408.77 417.37 412.00 384.00
C 412.00 369.26 412.31 353.66 412.00 339.00 C 411.69 324.34 412.80 307.25 412.00 293.00 C 411.20 278.75 418.91 273.22 429.25 264.25 C 439.58 255.28 456.89 261.45 471.00 260.00 C 485.11 258.55 502.13 261.06 517.00 260.00 C 531.87 258.94 547.68 261.38 563.00 260.00 C 578.33 258.62 587.88 259.45 598.75 270.25 C 609.62 281.05 611.50 289.42 610.00 305.00 C 608.50 320.58 610.65 334.63 610.00 350.00 C 609.35 365.37 610.29 380.71 610.00 396.00 C 609.71 411.29 610.12 426.81 610.00 442.00 C 609.88 457.19 610.03 473.01 610.00 488.00 C 609.97 502.99 609.96 519.43 610.00 534.00 C 610.04 548.57 610.40 565.40 608.67 578.67 C 606.94 591.94 603.11 602.28 597.23 613.23 C 591.35 624.18 585.45 629.99 576.75 638.75 C 568.05 647.51 560.35 650.79 549.31 656.31 C 538.26 661.82 523.95 663.70 511.00 664.00 C 498.05 664.30 483.38 662.01 472.31 656.69 C 461.23 651.38 452.95 647.55 444.25 638.75 C 435.55 629.95 429.36 624.31 423.70 613.30 C 418.03 602.30 413.66 592.24 412.02 578.98 C 410.38 565.71 411.07 548.40 411.00 534.00 C 410.93 519.60 411.00 502.63 411.00 488.00
M 443.00 902.00 
C 441.62 907.65 432.57 904.29 427.00 905.00 C 421.43 905.71 413.76 904.47 408.00 905.00
C 407.77 899.32 416.34 903.10 420.00 902.00
C 413.81 897.43 416.04 877.90 406.97 877.03 C 397.90 876.16 377.70 874.21 371.23 880.23 C 364.76 886.25 363.72 906.04 378.00 902.00
C 377.60 906.91 368.39 905.17 364.00 905.00 C 359.61 904.83 349.48 907.26 349.00 902.00
C 365.25 897.91 367.55 877.60 374.77 863.77 C 381.99 849.94 387.65 832.37 394.00 818.00
C 402.59 823.23 404.35 837.06 409.77 846.23 C 415.19 855.40 417.60 867.67 423.31 876.69 C 429.01 885.72 429.88 903.27 443.00 902.00
M 500.00 818.00 
C 500.00 827.67 500.00 837.33 500.00 847.00
C 493.95 845.57 495.86 836.29 491.23 831.77 C 486.60 827.25 482.81 822.62 475.99 822.01 C 469.18 821.39 461.23 822.31 457.70 828.70 C 454.16 835.09 457.23 841.74 462.70 845.30 C 468.17 848.87 472.53 851.87 478.23 854.77 C 483.93 857.67 488.75 859.99 493.75 864.25 C 498.76 868.51 502.56 873.19 503.33 879.67 C 504.10 886.15 502.52 892.82 497.75 897.75 C 492.98 902.68 487.64 905.33 481.00 906.00 C 474.36 906.66 466.65 908.36 460.78 903.22 C 454.91 898.09 450.30 900.06 446.00 905.00
C 446.50 899.86 445.34 892.96 446.00 888.00 C 446.66 883.04 443.43 874.85 449.00 874.00
C 449.65 880.47 451.95 886.96 455.75 892.25 C 459.55 897.53 463.32 901.50 470.07 902.93 C 476.83 904.35 484.80 902.53 489.75 897.75 C 494.70 892.97 495.27 885.28 490.75 880.25 C 486.22 875.23 481.72 872.80 476.25 869.75 C 470.79 866.69 465.40 864.26 460.25 860.75 C 455.11 857.24 450.20 854.07 448.23 847.77 C 446.26 841.47 447.12 833.35 450.92 827.92 C 454.73 822.50 460.10 819.37 466.67 818.67 C 473.24 817.97 480.74 816.75 486.70 822.30 C 492.65 827.85 496.60 822.36 500.00 818.00
M 581.00 820.00 
C 583.54 822.61 581.76 830.51 582.00 834.00 C 582.24 837.49 583.78 846.32 579.00 846.00
C 579.99 830.85 567.82 818.72 552.00 823.00
C 552.00 849.33 552.00 875.67 552.00 902.00
C 556.00 902.00 560.00 902.00 564.00 902.00
C 562.32 907.71 552.88 904.27 547.00 905.00 C 541.12 905.73 533.08 904.45 527.00 905.00
C 526.77 899.32 535.34 903.10 539.00 902.00
C 539.00 875.67 539.00 849.33 539.00 823.00
C 531.29 822.55 522.54 822.51 516.75 827.75 C 510.97 833.00 515.14 843.84 508.00 846.00
C 507.25 837.06 509.56 828.90 509.00 820.00
C 511.46 816.49 521.31 819.71 526.00 819.00 C 530.69 818.29 539.85 819.02 545.00 819.00 C 550.15 818.98 558.07 818.22 563.00 819.00 C 567.93 819.78 577.69 816.59 581.00 820.00
M 231.00 820.00 
C 231.46 825.51 223.40 822.01 220.00 823.00
C 219.70 840.47 220.40 859.71 220.00 877.00 C 219.60 894.29 233.19 903.47 249.07 901.07 C 264.95 898.68 272.01 880.71 269.00 866.00 C 265.99 851.29 277.58 824.37 257.00 823.00
C 257.13 818.00 265.90 820.05 270.00 820.00 C 274.10 819.95 282.25 818.49 284.00 822.00
C 267.00 828.15 272.57 855.23 273.00 872.00 C 273.43 888.77 263.67 905.11 246.00 906.00 C 228.32 906.88 210.48 902.55 207.67 883.33 C 204.87 864.11 208.37 842.65 207.00 823.00
C 203.33 823.00 199.67 823.00 196.00 823.00
C 197.38 817.35 206.43 820.71 212.00 820.00 C 217.57 819.29 225.24 820.53 231.00 820.00
M 311.00 866.00 
C 311.00 878.00 311.00 890.00 311.00 902.00
C 314.67 902.00 318.33 902.00 322.00 902.00
C 320.62 907.65 311.57 904.29 306.00 905.00 C 300.43 905.71 292.76 904.47 287.00 905.00
C 286.54 899.49 294.60 902.99 298.00 902.00
C 298.00 875.67 298.00 849.33 298.00 823.00
C 294.00 823.00 290.00 823.00 286.00 823.00
C 289.50 817.32 302.36 820.46 310.00 820.00 C 317.64 819.54 329.11 819.52 336.22 820.78 C 343.33 822.04 349.55 825.63 353.25 831.75 C 356.96 837.86 357.34 847.31 353.69 853.69 C 350.05 860.08 345.38 863.35 337.98 864.98 C 330.57 866.60 319.10 865.89 311.00 866.00
M 620.00 820.00 
C 620.46 825.51 612.40 822.01 609.00 823.00
C 609.00 849.33 609.00 875.67 609.00 902.00
C 612.67 902.00 616.33 902.00 620.00 902.00
C 618.62 907.65 609.57 904.30 604.00 905.00 C 598.43 905.70 590.76 904.47 585.00 905.00
C 584.54 899.49 592.60 902.99 596.00 902.00
C 596.00 875.67 596.00 849.33 596.00 823.00
C 592.00 823.00 588.00 823.00 584.00 823.00
C 585.55 817.39 594.20 820.65 600.00 820.00 C 605.80 819.35 613.98 820.49 620.00 820.00
M 695.00 832.00 
C 695.20 834.04 698.18 844.61 695.00 846.00
C 692.28 847.19 691.45 835.92 690.22 833.78 C 689.00 831.64 685.85 825.17 682.30 824.70 C 678.76 824.22 669.61 820.47 666.00 823.00
C 666.00 849.33 666.00 875.67 666.00 902.00
C 670.00 902.00 674.00 902.00 678.00 902.00
C 677.89 903.00 678.47 904.73 677.00 905.00
C 672.40 907.65 664.42 903.68 659.00 905.00 C 653.58 906.32 645.65 904.01 640.00 905.00
C 639.77 899.32 648.34 903.10 652.00 902.00
C 652.00 875.67 652.00 849.33 652.00 823.00
C 635.66 818.43 624.34 831.57 624.00 846.00
C 622.78 841.59 616.63 820.53 627.00 820.00 C 637.38 819.48 650.17 820.27 661.00 820.00 C 671.83 819.73 684.04 820.20 695.00 820.00
C 695.00 824.00 695.00 828.00 695.00 832.00
M 724.00 823.00 
C 724.00 835.00 724.00 847.00 724.00 859.00
C 728.92 862.45 739.93 857.20 746.00 859.00 C 752.07 860.80 761.61 857.65 768.00 859.00
C 768.00 847.00 768.00 835.00 768.00 823.00
C 764.00 823.00 760.00 823.00 756.00 823.00
C 757.55 817.39 766.20 820.65 772.00 820.00 C 777.80 819.35 785.98 820.49 792.00 820.00
C 792.46 825.51 784.40 822.01 781.00 823.00
C 781.00 849.33 781.00 875.67 781.00 902.00
C 784.67 902.00 788.33 902.00 792.00 902.00
C 790.62 907.65 781.57 904.29 776.00 905.00 C 770.43 905.71 762.76 904.47 757.00 905.00
C 756.54 899.49 764.60 902.99 768.00 902.00
C 768.00 889.00 768.00 876.00 768.00 863.00
C 753.33 863.00 738.67 863.00 724.00 863.00
C 723.13 875.92 725.17 889.11 724.00 902.00
C 725.91 902.00 733.33 900.95 734.00 903.00
C 734.86 905.64 721.74 905.12 718.00 905.00 C 714.26 904.88 703.39 905.09 699.00 905.00
C 698.54 899.49 706.60 902.99 710.00 902.00
C 710.00 875.67 710.00 849.33 710.00 823.00
C 706.00 823.00 702.00 823.00 698.00 823.00
C 699.55 817.39 708.20 820.65 714.00 820.00 C 719.80 819.35 727.98 820.49 734.00 820.00
C 734.66 825.30 727.15 822.14 724.00 823.00
M 831.00 820.00 
C 831.46 825.51 823.40 822.01 820.00 823.00
C 820.00 849.33 820.00 875.67 820.00 902.00
C 823.33 902.00 826.67 902.00 830.00 902.00
C 828.62 907.65 819.57 904.29 814.00 905.00 C 808.43 905.71 800.76 904.47 795.00 905.00
C 795.68 899.59 803.27 902.93 807.00 902.00
C 807.00 875.67 807.00 849.33 807.00 823.00
C 803.00 823.00 799.00 823.00 795.00 823.00
C 796.55 817.39 805.20 820.65 811.00 820.00 C 816.80 819.35 824.98 820.49 831.00 820.00 Z"/>
</g>
<g fill="None" fill-opacity="0.0" stroke="#AB8A52" stroke-opacity="1.00" stroke-width="0.3"><path d="
M 700.00 97.00 
C 685.47 95.59 666.27 97.82 653.02 100.02 C 639.77 102.23 627.40 107.98 616.23 113.23 C 605.06 118.48 594.54 125.65 586.25 133.25 C 577.96 140.84 561.41 151.33 572.25 162.75 C 583.09 174.18 593.71 156.16 602.75 149.75 C 611.80 143.34 621.71 134.69 633.32 130.32 C 644.93 125.95 658.78 121.28 672.33 120.33 C 685.88 119.38 705.14 120.04 717.98 124.02 C 730.81 128.00 742.19 130.50 753.30 138.70 C 764.41 146.90 771.27 148.51 780.75 161.25 C 790.23 173.99 809.34 158.50 799.25 146.75 C 789.16 135.01 783.18 131.74 772.25 123.75 C 761.31 115.77 751.92 111.10 739.68 106.32 C 727.44 101.55 712.85 98.24 700.00 97.00 Z"/>
</g>
<g fill="None" fill-opacity="0.0" stroke="#AB8953" stroke-opacity="1.00" stroke-width="0.3"><path d="
M 702.00 163.00 
C 714.43 165.53 725.60 169.80 736.00 177.00
C 744.19 182.68 752.56 199.40 764.30 192.30 C 776.05 185.21 766.79 171.09 757.25 164.75 C 747.71 158.41 739.52 150.85 728.07 146.93 C 716.62 143.00 702.76 138.68 690.00 139.00 C 677.24 139.32 659.96 139.39 649.22 144.22 C 638.48 149.05 626.42 153.12 618.75 160.75 C 611.07 168.37 595.35 175.27 602.23 187.77 C 609.11 200.27 623.70 188.03 631.25 180.25 C 638.80 172.47 651.06 169.14 661.78 164.78 C 672.50 160.42 690.15 160.59 702.00 163.00 Z"/>
</g>
<g fill="None" fill-opacity="0.0" stroke="#7F8792" stroke-opacity="1.00" stroke-width="0.3"><path d="
M 220.00 164.00 
C 276.00 164.00 332.00 164.00 388.00 164.00
C 385.05 159.78 372.45 164.30 367.00 163.00 C 361.55 161.70 352.30 163.57 346.00 163.00 C 339.70 162.43 331.67 163.21 325.00 163.00 C 318.33 162.79 310.82 163.00 304.00 163.00 C 297.18 163.00 288.73 162.82 282.00 163.00 C 275.27 163.18 267.32 162.48 261.00 163.00 C 254.68 163.52 245.44 161.80 240.00 163.00 C 234.56 164.20 222.90 159.86 220.00 164.00 Z"/>
</g>
<g fill="None" fill-opacity="0.0" stroke="#F7F2DF" stroke-opacity="1.00" stroke-width="0.3"><path d="
M 736.00 177.00 
C 725.60 169.80 714.43 165.53 702.00 163.00
C 709.89 170.51 725.39 167.53 731.00 178.00
C 732.55 177.90 735.23 176.79 736.00 177.00 Z"/>
</g>
<g fill="None" fill-opacity="0.0" stroke="#0F2035" stroke-opacity="1.00" stroke-width="0.3"><path d="
M 437.00 741.00 
C 445.00 741.00 453.00 741.00 461.00 741.00
C 534.23 739.15 606.07 688.86 630.00 619.00
C 632.33 656.68 630.34 696.50 631.00 735.00
C 688.00 735.00 745.00 735.00 802.00 735.00
C 807.10 714.28 784.71 713.78 773.75 701.25 C 762.79 688.71 755.14 680.68 749.98 664.02 C 744.81 647.36 744.53 627.18 745.00 608.00 C 745.47 588.82 744.81 566.74 745.00 547.00 C 745.19 527.26 744.96 505.89 745.00 486.00 C 745.04 466.11 745.08 444.76 745.00 425.00 C 744.92 405.24 745.24 383.24 745.00 364.00 C 744.76 344.76 747.77 325.67 738.25 309.75 C 728.73 293.83 711.09 291.35 694.00 293.00
C 687.53 293.63 677.33 295.69 671.00 293.00
C 670.58 293.18 669.50 293.03 669.00 293.00
C 640.79 291.23 629.11 318.30 631.00 344.00 C 632.89 369.70 630.11 405.93 631.00 433.00 C 631.89 460.07 630.54 494.16 631.00 521.00 C 631.46 547.84 632.66 580.43 624.78 603.78 C 616.89 627.12 606.62 640.07 588.75 655.75 C 570.88 671.44 551.12 679.86 528.00 684.00 C 504.89 688.14 474.10 682.54 454.23 671.77 C 434.36 661.00 420.70 648.07 407.92 629.08 C 395.15 610.08 389.00 583.41 389.00 560.00
C 387.78 547.44 388.00 533.28 388.00 520.00
C 388.00 437.33 388.00 354.67 388.00 272.00
C 388.00 264.79 388.10 257.16 388.00 250.00 C 387.90 242.84 388.28 235.01 388.00 228.00 C 387.72 220.99 388.67 213.71 388.00 207.00 C 387.33 200.29 389.44 191.15 388.00 185.00 C 386.56 178.85 391.34 168.78 388.00 164.00
C 332.00 164.00 276.00 164.00 220.00 164.00
C 218.40 166.28 218.88 180.62 221.32 182.68 C 223.76 184.74 231.02 186.15 234.25 188.75 C 237.49 191.34 242.64 193.82 245.75 197.25 C 248.86 200.67 252.08 203.44 254.75 207.25 C 257.43 211.06 260.58 213.91 262.70 218.30 C 264.81 222.70 267.42 227.05 269.02 231.98 C 270.63 236.90 271.92 241.64 273.01 246.99 C 274.10 252.34 274.41 257.98 275.22 263.78 C 276.03 269.57 276.15 276.70 276.00 283.00 C 275.85 289.30 276.06 295.59 276.00 302.00 C 275.94 308.41 276.03 315.56 276.00 322.00 C 275.97 328.44 276.01 334.58 276.00 341.00 C 275.99 347.42 276.01 353.54 276.00 360.00 C 275.99 366.46 276.00 373.54 276.00 380.00 C 276.00 386.46 276.00 392.57 276.00 399.00 C 276.00 405.43 276.00 411.53 276.00 418.00 C 276.00 424.47 276.00 431.53 276.00 438.00 C 276.00 444.47 276.00 450.56 276.00 457.00 C 276.00 463.44 276.00 469.52 276.00 476.00 C 276.00 482.48 276.00 489.50 276.00 496.00 C 276.00 502.50 275.99 508.49 276.00 515.00 C 276.01 521.51 275.99 528.49 276.00 535.00 C 276.01 541.51 275.97 547.49 276.00 554.00 C 276.03 560.51 275.92 566.38 276.00 573.00 C 276.08 579.62 275.54 585.74 276.67 592.33 C 277.80 598.92 276.54 602.75 278.07 609.93 C 279.60 617.11 279.65 616.29 281.68 625.32 C 283.71 634.35 288.41 644.98 292.70 653.31 C 296.98 661.63 301.75 670.19 307.75 677.25 C 313.75 684.31 320.00 690.96 326.75 697.25 C 333.50 703.54 340.89 708.82 348.30 713.70 C 355.72 718.57 353.02 717.13 360.92 721.08 C 368.83 725.02 379.81 729.04 387.98 732.02 C 396.14 735.01 396.92 734.45 403.78 736.22 C 410.64 738.00 412.90 738.89 419.33 739.67 C 425.76 740.45 430.55 741.00 437.00 741.00
M 692.00 318.00 
C 706.13 321.02 699.68 345.50 685.33 340.67 C 670.98 335.84 676.90 314.77 692.00 318.00 Z"/>
</g>
<g fill="None" fill-opacity="0.0" stroke="#AB8A54" stroke-opacity="1.00" stroke-width="0.3"><path d="
M 692.00 180.00 
C 680.73 178.64 661.76 182.35 653.08 188.08 C 644.40 193.81 627.71 201.30 633.70 214.30 C 639.69 227.30 654.44 218.01 662.75 209.75 C 671.07 201.49 689.24 203.06 700.31 205.69 C 711.37 208.33 718.27 225.35 730.92 219.92 C 743.58 214.50 735.64 198.21 725.23 192.77 C 714.82 187.33 703.72 181.42 692.00 180.00 Z"/>
</g>
<g fill="None" fill-opacity="0.0" stroke="#AC8A54" stroke-opacity="1.00" stroke-width="0.3"><path d="
M 669.00 293.00 
C 669.50 293.03 670.58 293.18 671.00 293.00
C 676.59 290.62 687.48 291.41 694.00 292.00
C 694.01 281.87 694.51 267.73 694.00 258.00 C 693.49 248.27 701.14 238.40 695.75 230.25 C 690.36 222.09 678.40 222.78 673.26 230.26 C 668.11 237.73 672.30 252.63 671.00 262.00 C 669.70 271.37 673.41 285.04 669.00 293.00 Z"/>
</g>
<g fill="None" fill-opacity="0.0" stroke="#AC8952" stroke-opacity="1.00" stroke-width="0.3"><path d="
M 412.00 384.00 
C 412.00 418.27 414.23 454.63 411.00 488.00
C 411.00 502.63 410.93 519.60 411.00 534.00 C 411.07 548.40 410.38 565.71 412.02 578.98 C 413.66 592.24 418.03 602.30 423.70 613.30 C 429.36 624.31 435.55 629.95 444.25 638.75 C 452.95 647.55 461.23 651.38 472.31 656.69 C 483.38 662.01 498.05 664.30 511.00 664.00 C 523.95 663.70 538.26 661.82 549.31 656.31 C 560.35 650.79 568.05 647.51 576.75 638.75 C 585.45 629.99 591.35 624.18 597.23 613.23 C 603.11 602.28 606.94 591.94 608.67 578.67 C 610.40 565.40 610.04 548.57 610.00 534.00 C 609.96 519.43 609.97 502.99 610.00 488.00 C 610.03 473.01 609.88 457.19 610.00 442.00 C 610.12 426.81 609.71 411.29 610.00 396.00 C 610.29 380.71 609.35 365.37 610.00 350.00 C 610.65 334.63 608.50 320.58 610.00 305.00 C 611.50 289.42 609.62 281.05 598.75 270.25 C 587.88 259.45 578.33 258.62 563.00 260.00 C 547.68 261.38 531.87 258.94 517.00 260.00 C 502.13 261.06 485.11 258.55 471.00 260.00 C 456.89 261.45 439.58 255.28 429.25 264.25 C 418.91 273.22 411.20 278.75 412.00 293.00 C 412.80 307.25 411.69 324.34 412.00 339.00 C 412.31 353.66 412.00 369.26 412.00 384.00
M 581.00 283.00 
C 593.40 288.80 586.83 305.10 588.00 317.00 C 589.17 328.90 587.44 345.08 588.00 358.00 C 588.56 370.92 586.49 385.61 587.00 399.00 C 587.51 412.39 586.81 426.46 587.00 440.00 C 587.19 453.54 586.97 468.51 587.00 482.00 C 587.03 495.49 587.13 509.81 587.00 523.00 C 586.87 536.19 587.36 552.51 587.00 565.00 C 586.64 577.49 584.10 588.04 579.23 598.23 C 574.36 608.41 569.85 614.03 561.75 621.75 C 553.66 629.48 545.16 632.80 534.98 636.98 C 524.79 641.15 509.86 641.98 498.78 640.22 C 487.70 638.46 477.09 635.37 468.25 628.75 C 459.41 622.12 453.96 617.52 447.70 608.30 C 441.44 599.08 436.76 590.84 435.01 578.99 C 433.25 567.15 434.11 552.01 434.00 539.00 C 433.89 525.99 433.99 511.46 434.00 498.00 C 434.01 484.54 433.87 469.63 434.00 456.00 C 434.13 442.37 433.65 428.66 434.00 415.00 C 434.35 401.34 433.23 386.58 434.00 373.00 C 434.77 359.42 432.24 345.32 434.00 332.00 C 435.76 318.68 430.18 302.74 434.00 290.00
C 437.68 277.70 454.44 282.41 465.00 282.00 C 475.56 281.59 492.42 281.64 504.00 282.00 C 515.58 282.36 531.35 280.63 543.00 282.00 C 554.65 283.37 570.85 278.25 581.00 283.00 Z"/>
</g>
<g fill="None" fill-opacity="0.0" stroke="#939AA1" stroke-opacity="1.00" stroke-width="0.3"><path d="
M 388.00 520.00 
C 388.00 519.96 389.00 520.00 389.00 520.00
C 389.00 478.72 389.90 436.15 389.00 395.00 C 388.10 353.85 391.89 312.19 388.00 272.00
C 388.00 354.67 388.00 437.33 388.00 520.00 Z"/>
</g>
<g fill="None" fill-opacity="0.0" stroke="#BAA886" stroke-opacity="1.00" stroke-width="0.3"><path d="
M 434.00 290.00 
C 438.16 278.72 454.61 283.50 465.00 283.00 C 475.39 282.50 492.49 282.67 504.00 283.00 C 515.51 283.33 530.20 281.55 542.00 283.00 C 553.80 284.45 569.60 279.59 581.00 283.00
C 570.85 278.25 554.65 283.37 543.00 282.00 C 531.35 280.63 515.58 282.36 504.00 282.00 C 492.42 281.64 475.56 281.59 465.00 282.00 C 454.44 282.41 437.68 277.70 434.00 290.00 Z"/>
</g>
<g fill="None" fill-opacity="0.0" stroke="#FBFBF9" stroke-opacity="1.00" stroke-width="0.3"><path d="
M 434.00 290.00 
C 430.18 302.74 435.76 318.68 434.00 332.00 C 432.24 345.32 434.77 359.42 434.00 373.00 C 433.23 386.58 434.35 401.34 434.00 415.00 C 433.65 428.66 434.13 442.37 434.00 456.00 C 433.87 469.63 434.01 484.54 434.00 498.00 C 433.99 511.46 433.89 525.99 434.00 539.00 C 434.11 552.01 433.25 567.15 435.01 578.99 C 436.76 590.84 441.44 599.08 447.70 608.30 C 453.96 617.52 459.41 622.12 468.25 628.75 C 477.09 635.37 487.70 638.46 498.78 640.22 C 509.86 641.98 524.79 641.15 534.98 636.98 C 545.16 632.80 553.66 629.48 561.75 621.75 C 569.85 614.03 574.36 608.41 579.23 598.23 C 584.10 588.04 586.64 577.49 587.00 565.00 C 587.36 552.51 586.87 536.19 587.00 523.00 C 587.13 509.81 587.03 495.49 587.00 482.00 C 586.97 468.51 587.19 453.54 587.00 440.00 C 586.81 426.46 587.51 412.39 587.00 399.00 C 586.49 385.61 588.56 370.92 588.00 358.00 C 587.44 345.08 589.17 328.90 588.00 317.00 C 586.83 305.10 593.40 288.80 581.00 283.00
C 569.60 279.59 553.80 284.45 542.00 283.00 C 530.20 281.55 515.51 283.33 504.00 283.00 C 492.49 282.67 475.39 282.50 465.00 283.00 C 454.61 283.50 438.16 278.72 434.00 290.00
M 475.00 299.00 
C 475.00 323.00 475.00 347.00 475.00 371.00
C 505.67 371.00 536.33 371.00 567.00 371.00
C 567.00 378.33 567.00 385.67 567.00 393.00
C 529.00 393.00 491.00 393.00 453.00 393.00
C 453.00 361.67 453.00 330.33 453.00 299.00
C 460.33 299.00 467.67 299.00 475.00 299.00
M 566.00 299.00 
C 566.00 306.33 566.00 313.67 566.00 321.00
C 546.00 321.00 526.00 321.00 506.00 321.00
C 506.00 333.33 506.00 345.67 506.00 358.00
C 498.67 358.00 491.33 358.00 484.00 358.00
C 484.00 338.33 484.00 318.67 484.00 299.00
C 511.33 299.00 538.67 299.00 566.00 299.00
M 538.00 334.00 
C 539.19 341.36 536.42 344.19 538.00 352.00 C 539.58 359.81 532.06 359.34 526.00 359.00 C 519.94 358.66 513.17 360.58 514.00 353.00 C 514.83 345.42 513.37 341.27 514.00 334.00
C 522.00 334.00 530.00 334.00 538.00 334.00
M 536.00 408.00 
C 536.00 415.33 536.00 422.67 536.00 430.00
C 508.67 430.00 481.33 430.00 454.00 430.00
C 454.00 422.67 454.00 415.33 454.00 408.00
C 481.33 408.00 508.67 408.00 536.00 408.00
M 503.00 443.00 
C 504.78 455.82 504.51 468.67 490.00 466.00 C 475.49 463.33 467.88 468.00 454.00 466.00
C 454.00 458.33 454.00 450.67 454.00 443.00
C 470.33 443.00 486.67 443.00 503.00 443.00
M 502.00 478.00 
C 502.00 485.67 502.00 493.33 502.00 501.00
C 486.00 501.00 470.00 501.00 454.00 501.00
C 454.00 493.33 454.00 485.67 454.00 478.00
C 470.00 478.00 486.00 478.00 502.00 478.00 Z"/>
</g>
<g fill="None" fill-opacity="0.0" stroke="#6A6653" stroke-opacity="1.00" stroke-width="0.3"><path d="
M 671.00 293.00 
C 678.62 292.49 686.39 293.68 694.00 293.00
C 694.00 293.00 694.00 292.50 694.00 292.00
C 687.48 291.41 676.59 290.62 671.00 293.00 Z"/>
</g>
<g fill="None" fill-opacity="0.0" stroke="#091215" stroke-opacity="1.00" stroke-width="0.3"><path d="
M 694.00 293.00 
C 686.39 293.68 678.62 292.49 671.00 293.00
C 677.33 295.69 687.53 293.63 694.00 293.00 Z"/>
</g>
<g fill="None" fill-opacity="0.0" stroke="#AA8851" stroke-opacity="1.00" stroke-width="0.3"><path d="
M 475.00 299.00 
C 467.67 299.00 460.33 299.00 453.00 299.00
C 453.00 330.33 453.00 361.67 453.00 393.00
C 491.00 393.00 529.00 393.00 567.00 393.00
C 567.00 385.67 567.00 378.33 567.00 371.00
C 536.33 371.00 505.67 371.00 475.00 371.00
C 475.00 347.00 475.00 323.00 475.00 299.00 Z"/>
</g>
<g fill="None" fill-opacity="0.0" stroke="#A98750" stroke-opacity="1.00" stroke-width="0.3"><path d="
M 566.00 299.00 
C 538.67 299.00 511.33 299.00 484.00 299.00
C 484.00 318.67 484.00 338.33 484.00 358.00
C 491.33 358.00 498.67 358.00 506.00 358.00
C 506.00 345.67 506.00 333.33 506.00 321.00
C 526.00 321.00 546.00 321.00 566.00 321.00
C 566.00 313.67 566.00 306.33 566.00 299.00 Z"/>
</g>
<g fill="None" fill-opacity="0.0" stroke="#F3F5F6" stroke-opacity="1.00" stroke-width="0.3"><path d="
M 692.00 318.00 
C 676.90 314.77 670.98 335.84 685.33 340.67 C 699.68 345.50 706.13 321.02 692.00 318.00 Z"/>
</g>
<g fill="None" fill-opacity="0.0" stroke="#AB8954" stroke-opacity="1.00" stroke-width="0.3"><path d="
M 538.00 334.00 
C 530.00 334.00 522.00 334.00 514.00 334.00
C 513.37 341.27 514.83 345.42 514.00 353.00 C 513.17 360.58 519.94 358.66 526.00 359.00 C 532.06 359.34 539.58 359.81 538.00 352.00 C 536.42 344.19 539.19 341.36 538.00 334.00 Z"/>
</g>
<g fill="None" fill-opacity="0.0" stroke="#CFBEA6" stroke-opacity="1.00" stroke-width="0.3"><path d="
M 411.00 488.00 
C 414.23 454.63 412.00 418.27 412.00 384.00
C 408.77 417.37 411.00 453.73 411.00 488.00 Z"/>
</g>
<g fill="None" fill-opacity="0.0" stroke="#AA8850" stroke-opacity="1.00" stroke-width="0.3"><path d="
M 536.00 408.00 
C 508.67 408.00 481.33 408.00 454.00 408.00
C 454.00 415.33 454.00 422.67 454.00 430.00
C 481.33 430.00 508.67 430.00 536.00 430.00
C 536.00 422.67 536.00 415.33 536.00 408.00 Z"/>
</g>
<g fill="None" fill-opacity="0.0" stroke="#AA8854" stroke-opacity="1.00" stroke-width="0.3"><path d="
M 503.00 443.00 
C 486.67 443.00 470.33 443.00 454.00 443.00
C 454.00 450.67 454.00 458.33 454.00 466.00
C 467.88 468.00 475.49 463.33 490.00 466.00 C 504.51 468.67 504.78 455.82 503.00 443.00 Z"/>
</g>
<g fill="None" fill-opacity="0.0" stroke="#A98851" stroke-opacity="1.00" stroke-width="0.3"><path d="
M 502.00 478.00 
C 486.00 478.00 470.00 478.00 454.00 478.00
C 454.00 485.67 454.00 493.33 454.00 501.00
C 470.00 501.00 486.00 501.00 502.00 501.00
C 502.00 493.33 502.00 485.67 502.00 478.00 Z"/>
</g>
<g fill="None" fill-opacity="0.0" stroke="#6F777F" stroke-opacity="1.00" stroke-width="0.3"><path d="
M 389.00 560.00 
C 389.00 546.67 389.00 533.33 389.00 520.00
C 389.00 520.00 388.00 519.96 388.00 520.00
C 388.00 533.28 387.78 547.44 389.00 560.00 Z"/>
</g>
<g fill="None" fill-opacity="0.0" stroke="#757E87" stroke-opacity="1.00" stroke-width="0.3"><path d="
M 461.00 741.00 
C 453.00 741.00 445.00 741.00 437.00 741.00
C 444.48 741.72 453.45 741.73 461.00 741.00 Z"/>
</g>
<g fill="None" fill-opacity="0.0" stroke="#132135" stroke-opacity="1.00" stroke-width="0.3"><path d="
M 443.00 902.00 
C 429.88 903.27 429.01 885.72 423.31 876.69 C 417.60 867.67 415.19 855.40 409.77 846.23 C 404.35 837.06 402.59 823.23 394.00 818.00
C 387.65 832.37 381.99 849.94 374.77 863.77 C 367.55 877.60 365.25 897.91 349.00 902.00
C 349.48 907.26 359.61 904.83 364.00 905.00 C 368.39 905.17 377.60 906.91 378.00 902.00
C 363.72 906.04 364.76 886.25 371.23 880.23 C 377.70 874.21 397.90 876.16 406.97 877.03 C 416.04 877.90 413.81 897.43 420.00 902.00
C 416.34 903.10 407.77 899.32 408.00 905.00
C 413.76 904.47 421.43 905.71 427.00 905.00 C 432.57 904.29 441.62 907.65 443.00 902.00
M 407.00 872.00 
C 406.87 874.78 397.09 874.85 393.00 874.00 C 388.91 873.15 377.11 876.45 375.00 873.00
C 373.51 870.58 379.58 863.26 379.98 859.98 C 380.37 856.69 384.45 851.26 385.77 847.77 C 387.09 844.28 388.87 837.60 392.00 836.00
C 396.10 848.30 402.33 859.89 407.00 872.00 Z"/>
</g>
<g fill="None" fill-opacity="0.0" stroke="#132134" stroke-opacity="1.00" stroke-width="0.3"><path d="
M 500.00 818.00 
C 496.60 822.36 492.65 827.85 486.70 822.30 C 480.74 816.75 473.24 817.97 466.67 818.67 C 460.10 819.37 454.73 822.50 450.92 827.92 C 447.12 833.35 446.26 841.47 448.23 847.77 C 450.20 854.07 455.11 857.24 460.25 860.75 C 465.40 864.26 470.79 866.69 476.25 869.75 C 481.72 872.80 486.22 875.23 490.75 880.25 C 495.27 885.28 494.70 892.97 489.75 897.75 C 484.80 902.53 476.83 904.35 470.07 902.93 C 463.32 901.50 459.55 897.53 455.75 892.25 C 451.95 886.96 449.65 880.47 449.00 874.00
C 443.43 874.85 446.66 883.04 446.00 888.00 C 445.34 892.96 446.50 899.86 446.00 905.00
C 450.30 900.06 454.91 898.09 460.78 903.22 C 466.65 908.36 474.36 906.66 481.00 906.00 C 487.64 905.33 492.98 902.68 497.75 897.75 C 502.52 892.82 504.10 886.15 503.33 879.67 C 502.56 873.19 498.76 868.51 493.75 864.25 C 488.75 859.99 483.93 857.67 478.23 854.77 C 472.53 851.87 468.17 848.87 462.70 845.30 C 457.23 841.74 454.16 835.09 457.70 828.70 C 461.23 822.31 469.18 821.39 475.99 822.01 C 482.81 822.62 486.60 827.25 491.23 831.77 C 495.86 836.29 493.95 845.57 500.00 847.00
C 500.00 837.33 500.00 827.67 500.00 818.00 Z"/>
</g>
<g fill="None" fill-opacity="0.0" stroke="#9199A4" stroke-opacity="1.00" stroke-width="0.3"><path d="
M 509.00 820.00 
C 514.83 820.24 521.23 819.68 527.00 820.00 C 532.77 820.32 539.43 819.40 545.00 820.00 C 550.57 820.60 557.93 818.71 563.00 820.00 C 568.07 821.29 577.05 817.15 581.00 820.00
C 577.69 816.59 567.93 819.78 563.00 819.00 C 558.07 818.22 550.15 818.98 545.00 819.00 C 539.85 819.02 530.69 818.29 526.00 819.00 C 521.31 819.71 511.46 816.49 509.00 820.00 Z"/>
</g>
<g fill="None" fill-opacity="0.0" stroke="#122134" stroke-opacity="1.00" stroke-width="0.3"><path d="
M 231.00 820.00 
C 225.24 820.53 217.57 819.29 212.00 820.00 C 206.43 820.71 197.38 817.35 196.00 823.00
C 199.67 823.00 203.33 823.00 207.00 823.00
C 208.37 842.65 204.87 864.11 207.67 883.33 C 210.48 902.55 228.32 906.88 246.00 906.00 C 263.67 905.11 273.43 888.77 273.00 872.00 C 272.57 855.23 267.00 828.15 284.00 822.00
C 282.25 818.49 274.10 819.95 270.00 820.00 C 265.90 820.05 257.13 818.00 257.00 823.00
C 277.58 824.37 265.99 851.29 269.00 866.00 C 272.01 880.71 264.95 898.68 249.07 901.07 C 233.19 903.47 219.60 894.29 220.00 877.00 C 220.40 859.71 219.70 840.47 220.00 823.00
C 223.40 822.01 231.46 825.51 231.00 820.00 Z"/>
</g>
<g fill="None" fill-opacity="0.0" stroke="#112034" stroke-opacity="1.00" stroke-width="0.3"><path d="
M 311.00 866.00 
C 319.10 865.89 330.57 866.60 337.98 864.98 C 345.38 863.35 350.05 860.08 353.69 853.69 C 357.34 847.31 356.96 837.86 353.25 831.75 C 349.55 825.63 343.33 822.04 336.22 820.78 C 329.11 819.52 317.64 819.54 310.00 820.00 C 302.36 820.46 289.50 817.32 286.00 823.00
C 290.00 823.00 294.00 823.00 298.00 823.00
C 298.00 849.33 298.00 875.67 298.00 902.00
C 294.60 902.99 286.54 899.49 287.00 905.00
C 292.76 904.47 300.43 905.71 306.00 905.00 C 311.57 904.29 320.62 907.65 322.00 902.00
C 318.33 902.00 314.67 902.00 311.00 902.00
C 311.00 890.00 311.00 878.00 311.00 866.00
M 311.00 863.00 
C 311.00 849.67 311.00 836.33 311.00 823.00
C 326.39 820.66 341.75 825.86 342.00 843.00 C 342.24 860.15 326.18 865.47 311.00 863.00 Z"/>
</g>
<g fill="None" fill-opacity="0.0" stroke="#101F33" stroke-opacity="1.00" stroke-width="0.3"><path d="
M 581.00 820.00 
C 577.05 817.15 568.07 821.29 563.00 820.00 C 557.93 818.71 550.57 820.60 545.00 820.00 C 539.43 819.40 532.77 820.32 527.00 820.00 C 521.23 819.68 514.83 820.24 509.00 820.00
C 509.56 828.90 507.25 837.06 508.00 846.00
C 515.14 843.84 510.97 833.00 516.75 827.75 C 522.54 822.51 531.29 822.55 539.00 823.00
C 539.00 849.33 539.00 875.67 539.00 902.00
C 535.34 903.10 526.77 899.32 527.00 905.00
C 533.08 904.45 541.12 905.73 547.00 905.00 C 552.88 904.27 562.32 907.71 564.00 902.00
C 560.00 902.00 556.00 902.00 552.00 902.00
C 552.00 875.67 552.00 849.33 552.00 823.00
C 567.82 818.72 579.99 830.85 579.00 846.00
C 583.78 846.32 582.24 837.49 582.00 834.00 C 581.76 830.51 583.54 822.61 581.00 820.00 Z"/>
</g>
<g fill="None" fill-opacity="0.0" stroke="#102136" stroke-opacity="1.00" stroke-width="0.3"><path d="
M 620.00 820.00 
C 613.98 820.49 605.80 819.35 600.00 820.00 C 594.20 820.65 585.55 817.39 584.00 823.00
C 588.00 823.00 592.00 823.00 596.00 823.00
C 596.00 849.33 596.00 875.67 596.00 902.00
C 592.60 902.99 584.54 899.49 585.00 905.00
C 590.76 904.47 598.43 905.70 604.00 905.00 C 609.57 904.30 618.62 907.65 620.00 902.00
C 616.33 902.00 612.67 902.00 609.00 902.00
C 609.00 875.67 609.00 849.33 609.00 823.00
C 612.40 822.01 620.46 825.51 620.00 820.00 Z"/>
</g>
<g fill="None" fill-opacity="0.0" stroke="#0F1F33" stroke-opacity="1.00" stroke-width="0.3"><path d="
M 677.00 905.00 
C 675.92 900.63 668.76 904.76 666.00 902.00
C 662.43 898.43 665.76 888.31 665.00 883.00 C 664.24 877.69 664.91 868.53 665.00 863.00 C 665.09 857.47 664.01 848.00 665.00 843.00 C 665.99 838.00 662.14 825.71 666.00 823.00
C 669.61 820.47 678.76 824.22 682.30 824.70 C 685.85 825.17 689.00 831.64 690.22 833.78 C 691.45 835.92 692.28 847.19 695.00 846.00
C 695.00 841.33 695.00 836.67 695.00 832.00
C 695.00 828.00 695.00 824.00 695.00 820.00
C 684.04 820.20 671.83 819.73 661.00 820.00 C 650.17 820.27 637.38 819.48 627.00 820.00 C 616.63 820.53 622.78 841.59 624.00 846.00
C 624.34 831.57 635.66 818.43 652.00 823.00
C 652.00 849.33 652.00 875.67 652.00 902.00
C 648.34 903.10 639.77 899.32 640.00 905.00
C 645.65 904.01 653.58 906.32 659.00 905.00 C 664.42 903.68 672.40 907.65 677.00 905.00 Z"/>
</g>
<g fill="None" fill-opacity="0.0" stroke="#122034" stroke-opacity="1.00" stroke-width="0.3"><path d="
M 734.00 903.00 
C 730.69 902.19 725.42 904.52 723.00 902.00
C 722.53 896.81 722.39 886.80 723.00 882.00 C 723.61 877.20 720.44 865.49 724.00 863.00
C 738.67 863.00 753.33 863.00 768.00 863.00
C 768.00 876.00 768.00 889.00 768.00 902.00
C 764.60 902.99 756.54 899.49 757.00 905.00
C 762.76 904.47 770.43 905.71 776.00 905.00 C 781.57 904.29 790.62 907.65 792.00 902.00
C 788.33 902.00 784.67 902.00 781.00 902.00
C 781.00 875.67 781.00 849.33 781.00 823.00
C 784.40 822.01 792.46 825.51 792.00 820.00
C 785.98 820.49 777.80 819.35 772.00 820.00 C 766.20 820.65 757.55 817.39 756.00 823.00
C 760.00 823.00 764.00 823.00 768.00 823.00
C 768.00 835.00 768.00 847.00 768.00 859.00
C 761.61 857.65 752.07 860.80 746.00 859.00 C 739.93 857.20 728.92 862.45 724.00 859.00
C 721.21 857.04 723.02 844.51 723.00 841.00 C 722.99 837.49 721.24 824.93 724.00 823.00
C 727.15 822.14 734.66 825.30 734.00 820.00
C 727.98 820.49 719.80 819.35 714.00 820.00 C 708.20 820.65 699.55 817.39 698.00 823.00
C 702.00 823.00 706.00 823.00 710.00 823.00
C 710.00 849.33 710.00 875.67 710.00 902.00
C 706.60 902.99 698.54 899.49 699.00 905.00
C 703.39 905.09 714.26 904.88 718.00 905.00 C 721.74 905.12 734.86 905.64 734.00 903.00 Z"/>
</g>
<g fill="None" fill-opacity="0.0" stroke="#112034" stroke-opacity="1.00" stroke-width="0.3"><path d="
M 831.00 820.00 
C 824.98 820.49 816.80 819.35 811.00 820.00 C 805.20 820.65 796.55 817.39 795.00 823.00
C 799.00 823.00 803.00 823.00 807.00 823.00
C 807.00 849.33 807.00 875.67 807.00 902.00
C 803.27 902.93 795.68 899.59 795.00 905.00
C 800.76 904.47 808.43 905.71 814.00 905.00 C 819.57 904.29 828.62 907.65 830.00 902.00
C 826.67 902.00 823.33 902.00 820.00 902.00
C 820.00 875.67 820.00 849.33 820.00 823.00
C 823.40 822.01 831.46 825.51 831.00 820.00 Z"/>
</g>
<g fill="None" fill-opacity="0.0" stroke="#F6F7F8" stroke-opacity="1.00" stroke-width="0.3"><path d="
M 311.00 863.00 
C 326.18 865.47 342.24 860.15 342.00 843.00 C 341.75 825.86 326.39 820.66 311.00 823.00
C 311.00 836.33 311.00 849.67 311.00 863.00 Z"/>
</g>
<g fill="None" fill-opacity="0.0" stroke="#9299A3" stroke-opacity="1.00" stroke-width="0.3"><path d="
M 666.00 902.00 
C 666.00 875.67 666.00 849.33 666.00 823.00
C 662.14 825.71 665.99 838.00 665.00 843.00 C 664.01 848.00 665.09 857.47 665.00 863.00 C 664.91 868.53 664.24 877.69 665.00 883.00 C 665.76 888.31 662.43 898.43 666.00 902.00 Z"/>
</g>
<g fill="None" fill-opacity="0.0" stroke="#8E96A3" stroke-opacity="1.00" stroke-width="0.3"><path d="
M 724.00 859.00 
C 724.00 847.00 724.00 835.00 724.00 823.00
C 721.24 824.93 722.99 837.49 723.00 841.00 C 723.02 844.51 721.21 857.04 724.00 859.00 Z"/>
</g>
<g fill="None" fill-opacity="0.0" stroke="#747D8B" stroke-opacity="1.00" stroke-width="0.3"><path d="
M 695.00 846.00 
C 698.18 844.61 695.20 834.04 695.00 832.00
C 695.00 836.67 695.00 841.33 695.00 846.00 Z"/>
</g>
<g fill="None" fill-opacity="0.0" stroke="#F5F7F8" stroke-opacity="1.00" stroke-width="0.3"><path d="
M 375.00 873.00 
C 379.34 872.17 386.99 874.11 391.00 873.00 C 395.01 871.89 404.87 875.48 407.00 872.00
C 402.33 859.89 396.10 848.30 392.00 836.00
C 388.87 837.60 387.09 844.28 385.77 847.77 C 384.45 851.26 380.37 856.69 379.98 859.98 C 379.58 863.26 373.51 870.58 375.00 873.00 Z"/>
</g>
<g fill="None" fill-opacity="0.0" stroke="#969EAA" stroke-opacity="1.00" stroke-width="0.3"><path d="
M 723.00 902.00 
C 723.00 902.04 724.00 902.00 724.00 902.00
C 725.17 889.11 723.13 875.92 724.00 863.00
C 720.44 865.49 723.61 877.20 723.00 882.00 C 722.39 886.80 722.53 896.81 723.00 902.00 Z"/>
</g>
<g fill="None" fill-opacity="0.0" stroke="#8D96A5" stroke-opacity="1.00" stroke-width="0.3"><path d="
M 375.00 873.00 
C 377.11 876.45 388.91 873.15 393.00 874.00 C 397.09 874.85 406.87 874.78 407.00 872.00
C 404.87 875.48 395.01 871.89 391.00 873.00 C 386.99 874.11 379.34 872.17 375.00 873.00 Z"/>
</g>
<g fill="None" fill-opacity="0.0" stroke="#565D66" stroke-opacity="1.00" stroke-width="0.3"><path d="
M 677.00 905.00 
C 678.47 904.73 677.89 903.00 678.00 902.00
C 674.00 902.00 670.00 902.00 666.00 902.00
C 668.76 904.76 675.92 900.63 677.00 905.00 Z"/>
</g>
<g fill="None" fill-opacity="0.0" stroke="#454A5F" stroke-opacity="1.00" stroke-width="0.3"><path d="
M 734.00 903.00 
C 733.33 900.95 725.91 902.00 724.00 902.00
C 724.00 902.00 723.00 902.04 723.00 902.00
C 725.42 904.52 730.69 902.19 734.00 903.00 Z"/>
</g>
<g fill="#FEFEFE" fill-opacity="1.00" stroke="None">
<path d="
M 0.00 1024.00 
L 1024.00 1024.00
L 1024.00 0.00
L 0.00 0.00
L 0.00 1024.00
M 700.00 97.00 
C 712.85 98.24 727.44 101.55 739.68 106.32 C 751.92 111.10 761.31 115.77 772.25 123.75 C 783.18 131.74 789.16 135.01 799.25 146.75 C 809.34 158.50 790.23 173.99 780.75 161.25 C 771.27 148.51 764.41 146.90 753.30 138.70 C 742.19 130.50 730.81 128.00 717.98 124.02 C 705.14 120.04 685.88 119.38 672.33 120.33 C 658.78 121.28 644.93 125.95 633.32 130.32 C 621.71 134.69 611.80 143.34 602.75 149.75 C 593.71 156.16 583.09 174.18 572.25 162.75 C 561.41 151.33 577.96 140.84 586.25 133.25 C 594.54 125.65 605.06 118.48 616.23 113.23 C 627.40 107.98 639.77 102.23 653.02 100.02 C 666.27 97.82 685.47 95.59 700.00 97.00
M 736.00 177.00 
C 735.23 176.79 732.55 177.90 731.00 178.00
C 725.39 167.53 709.89 170.51 702.00 163.00
C 690.15 160.59 672.50 160.42 661.78 164.78 C 651.06 169.14 638.80 172.47 631.25 180.25 C 623.70 188.03 609.11 200.27 602.23 187.77 C 595.35 175.27 611.07 168.37 618.75 160.75 C 626.42 153.12 638.48 149.05 649.22 144.22 C 659.96 139.39 677.24 139.32 690.00 139.00 C 702.76 138.68 716.62 143.00 728.07 146.93 C 739.52 150.85 747.71 158.41 757.25 164.75 C 766.79 171.09 776.05 185.21 764.30 192.30 C 752.56 199.40 744.19 182.68 736.00 177.00
M 388.00 164.00 
C 391.34 168.78 386.56 178.85 388.00 185.00 C 389.44 191.15 387.33 200.29 388.00 207.00 C 388.67 213.71 387.72 220.99 388.00 228.00 C 388.28 235.01 387.90 242.84 388.00 250.00 C 388.10 257.16 388.00 264.79 388.00 272.00
C 391.89 312.19 388.10 353.85 389.00 395.00 C 389.90 436.15 389.00 478.72 389.00 520.00
C 389.00 533.33 389.00 546.67 389.00 560.00
C 389.00 583.41 395.15 610.08 407.92 629.08 C 420.70 648.07 434.36 661.00 454.23 671.77 C 474.10 682.54 504.89 688.14 528.00 684.00 C 551.12 679.86 570.88 671.44 588.75 655.75 C 606.62 640.07 616.89 627.12 624.78 603.78 C 632.66 580.43 631.46 547.84 631.00 521.00 C 630.54 494.16 631.89 460.07 631.00 433.00 C 630.11 405.93 632.89 369.70 631.00 344.00 C 629.11 318.30 640.79 291.23 669.00 293.00
C 673.41 285.04 669.70 271.37 671.00 262.00 C 672.30 252.63 668.11 237.73 673.26 230.26 C 678.40 222.78 690.36 222.09 695.75 230.25 C 701.14 238.40 693.49 248.27 694.00 258.00 C 694.51 267.73 694.01 281.87 694.00 292.00
C 694.00 292.50 694.00 293.00 694.00 293.00
C 711.09 291.35 728.73 293.83 738.25 309.75 C 747.77 325.67 744.76 344.76 745.00 364.00 C 745.24 383.24 744.92 405.24 745.00 425.00 C 745.08 444.76 745.04 466.11 745.00 486.00 C 744.96 505.89 745.19 527.26 745.00 547.00 C 744.81 566.74 745.47 588.82 745.00 608.00 C 744.53 627.18 744.81 647.36 749.98 664.02 C 755.14 680.68 762.79 688.71 773.75 701.25 C 784.71 713.78 807.10 714.28 802.00 735.00
C 745.00 735.00 688.00 735.00 631.00 735.00
C 630.34 696.50 632.33 656.68 630.00 619.00
C 606.07 688.86 534.23 739.15 461.00 741.00
C 453.45 741.73 444.48 741.72 437.00 741.00
C 430.55 741.00 425.76 740.45 419.33 739.67 C 412.90 738.89 410.64 738.00 403.78 736.22 C 396.92 734.45 396.14 735.01 387.98 732.02 C 379.81 729.04 368.83 725.02 360.92 721.08 C 353.02 717.13 355.72 718.57 348.30 713.70 C 340.89 708.82 333.50 703.54 326.75 697.25 C 320.00 690.96 313.75 684.31 307.75 677.25 C 301.75 670.19 296.98 661.63 292.70 653.31 C 288.41 644.98 283.71 634.35 281.68 625.32 C 279.65 616.29 279.60 617.11 278.07 609.93 C 276.54 602.75 277.80 598.92 276.67 592.33 C 275.54 585.74 276.08 579.62 276.00 573.00 C 275.92 566.38 276.03 560.51 276.00 554.00 C 275.97 547.49 276.01 541.51 276.00 535.00 C 275.99 528.49 276.01 521.51 276.00 515.00 C 275.99 508.49 276.00 502.50 276.00 496.00 C 276.00 489.50 276.00 482.48 276.00 476.00 C 276.00 469.52 276.00 463.44 276.00 457.00 C 276.00 450.56 276.00 444.47 276.00 438.00 C 276.00 431.53 276.00 424.47 276.00 418.00 C 276.00 411.53 276.00 405.43 276.00 399.00 C 276.00 392.57 276.00 386.46 276.00 380.00 C 276.00 373.54 275.99 366.46 276.00 360.00 C 276.01 353.54 275.99 347.42 276.00 341.00 C 276.01 334.58 275.97 328.44 276.00 322.00 C 276.03 315.56 275.94 308.41 276.00 302.00 C 276.06 295.59 275.85 289.30 276.00 283.00 C 276.15 276.70 276.03 269.57 275.22 263.78 C 274.41 257.98 274.10 252.34 273.01 246.99 C 271.92 241.64 270.63 236.90 269.02 231.98 C 267.42 227.05 264.81 222.70 262.70 218.30 C 260.58 213.91 257.43 211.06 254.75 207.25 C 252.08 203.44 248.86 200.67 245.75 197.25 C 242.64 193.82 237.49 191.34 234.25 188.75 C 231.02 186.15 223.76 184.74 221.32 182.68 C 218.88 180.62 218.40 166.28 220.00 164.00
C 222.90 159.86 234.56 164.20 240.00 163.00 C 245.44 161.80 254.68 163.52 261.00 163.00 C 267.32 162.48 275.27 163.18 282.00 163.00 C 288.73 162.82 297.18 163.00 304.00 163.00 C 310.82 163.00 318.33 162.79 325.00 163.00 C 331.67 163.21 339.70 162.43 346.00 163.00 C 352.30 163.57 361.55 161.70 367.00 163.00 C 372.45 164.30 385.05 159.78 388.00 164.00
M 692.00 180.00 
C 703.72 181.42 714.82 187.33 725.23 192.77 C 735.64 198.21 743.58 214.50 730.92 219.92 C 718.27 225.35 711.37 208.33 700.31 205.69 C 689.24 203.06 671.07 201.49 662.75 209.75 C 654.44 218.01 639.69 227.30 633.70 214.30 C 627.71 201.30 644.40 193.81 653.08 188.08 C 661.76 182.35 680.73 178.64 692.00 180.00
M 411.00 488.00 
C 411.00 453.73 408.77 417.37 412.00 384.00
C 412.00 369.26 412.31 353.66 412.00 339.00 C 411.69 324.34 412.80 307.25 412.00 293.00 C 411.20 278.75 418.91 273.22 429.25 264.25 C 439.58 255.28 456.89 261.45 471.00 260.00 C 485.11 258.55 502.13 261.06 517.00 260.00 C 531.87 258.94 547.68 261.38 563.00 260.00 C 578.33 258.62 587.88 259.45 598.75 270.25 C 609.62 281.05 611.50 289.42 610.00 305.00 C 608.50 320.58 610.65 334.63 610.00 350.00 C 609.35 365.37 610.29 380.71 610.00 396.00 C 609.71 411.29 610.12 426.81 610.00 442.00 C 609.88 457.19 610.03 473.01 610.00 488.00 C 609.97 502.99 609.96 519.43 610.00 534.00 C 610.04 548.57 610.40 565.40 608.67 578.67 C 606.94 591.94 603.11 602.28 597.23 613.23 C 591.35 624.18 585.45 629.99 576.75 638.75 C 568.05 647.51 560.35 650.79 549.31 656.31 C 538.26 661.82 523.95 663.70 511.00 664.00 C 498.05 664.30 483.38 662.01 472.31 656.69 C 461.23 651.38 452.95 647.55 444.25 638.75 C 435.55 629.95 429.36 624.31 423.70 613.30 C 418.03 602.30 413.66 592.24 412.02 578.98 C 410.38 565.71 411.07 548.40 411.00 534.00 C 410.93 519.60 411.00 502.63 411.00 488.00
M 443.00 902.00 
C 441.62 907.65 432.57 904.29 427.00 905.00 C 421.43 905.71 413.76 904.47 408.00 905.00
C 407.77 899.32 416.34 903.10 420.00 902.00
C 413.81 897.43 416.04 877.90 406.97 877.03 C 397.90 876.16 377.70 874.21 371.23 880.23 C 364.76 886.25 363.72 906.04 378.00 902.00
C 377.60 906.91 368.39 905.17 364.00 905.00 C 359.61 904.83 349.48 907.26 349.00 902.00
C 365.25 897.91 367.55 877.60 374.77 863.77 C 381.99 849.94 387.65 832.37 394.00 818.00
C 402.59 823.23 404.35 837.06 409.77 846.23 C 415.19 855.40 417.60 867.67 423.31 876.69 C 429.01 885.72 429.88 903.27 443.00 902.00
M 500.00 818.00 
C 500.00 827.67 500.00 837.33 500.00 847.00
C 493.95 845.57 495.86 836.29 491.23 831.77 C 486.60 827.25 482.81 822.62 475.99 822.01 C 469.18 821.39 461.23 822.31 457.70 828.70 C 454.16 835.09 457.23 841.74 462.70 845.30 C 468.17 848.87 472.53 851.87 478.23 854.77 C 483.93 857.67 488.75 859.99 493.75 864.25 C 498.76 868.51 502.56 873.19 503.33 879.67 C 504.10 886.15 502.52 892.82 497.75 897.75 C 492.98 902.68 487.64 905.33 481.00 906.00 C 474.36 906.66 466.65 908.36 460.78 903.22 C 454.91 898.09 450.30 900.06 446.00 905.00
C 446.50 899.86 445.34 892.96 446.00 888.00 C 446.66 883.04 443.43 874.85 449.00 874.00
C 449.65 880.47 451.95 886.96 455.75 892.25 C 459.55 897.53 463.32 901.50 470.07 902.93 C 476.83 904.35 484.80 902.53 489.75 897.75 C 494.70 892.97 495.27 885.28 490.75 880.25 C 486.22 875.23 481.72 872.80 476.25 869.75 C 470.79 866.69 465.40 864.26 460.25 860.75 C 455.11 857.24 450.20 854.07 448.23 847.77 C 446.26 841.47 447.12 833.35 450.92 827.92 C 454.73 822.50 460.10 819.37 466.67 818.67 C 473.24 817.97 480.74 816.75 486.70 822.30 C 492.65 827.85 496.60 822.36 500.00 818.00
M 581.00 820.00 
C 583.54 822.61 581.76 830.51 582.00 834.00 C 582.24 837.49 583.78 846.32 579.00 846.00
C 579.99 830.85 567.82 818.72 552.00 823.00
C 552.00 849.33 552.00 875.67 552.00 902.00
C 556.00 902.00 560.00 902.00 564.00 902.00
C 562.32 907.71 552.88 904.27 547.00 905.00 C 541.12 905.73 533.08 904.45 527.00 905.00
C 526.77 899.32 535.34 903.10 539.00 902.00
C 539.00 875.67 539.00 849.33 539.00 823.00
C 531.29 822.55 522.54 822.51 516.75 827.75 C 510.97 833.00 515.14 843.84 508.00 846.00
C 507.25 837.06 509.56 828.90 509.00 820.00
C 511.46 816.49 521.31 819.71 526.00 819.00 C 530.69 818.29 539.85 819.02 545.00 819.00 C 550.15 818.98 558.07 818.22 563.00 819.00 C 567.93 819.78 577.69 816.59 581.00 820.00
M 231.00 820.00 
C 231.46 825.51 223.40 822.01 220.00 823.00
C 219.70 840.47 220.40 859.71 220.00 877.00 C 219.60 894.29 233.19 903.47 249.07 901.07 C 264.95 898.68 272.01 880.71 269.00 866.00 C 265.99 851.29 277.58 824.37 257.00 823.00
C 257.13 818.00 265.90 820.05 270.00 820.00 C 274.10 819.95 282.25 818.49 284.00 822.00
C 267.00 828.15 272.57 855.23 273.00 872.00 C 273.43 888.77 263.67 905.11 246.00 906.00 C 228.32 906.88 210.48 902.55 207.67 883.33 C 204.87 864.11 208.37 842.65 207.00 823.00
C 203.33 823.00 199.67 823.00 196.00 823.00
C 197.38 817.35 206.43 820.71 212.00 820.00 C 217.57 819.29 225.24 820.53 231.00 820.00
M 311.00 866.00 
C 311.00 878.00 311.00 890.00 311.00 902.00
C 314.67 902.00 318.33 902.00 322.00 902.00
C 320.62 907.65 311.57 904.29 306.00 905.00 C 300.43 905.71 292.76 904.47 287.00 905.00
C 286.54 899.49 294.60 902.99 298.00 902.00
C 298.00 875.67 298.00 849.33 298.00 823.00
C 294.00 823.00 290.00 823.00 286.00 823.00
C 289.50 817.32 302.36 820.46 310.00 820.00 C 317.64 819.54 329.11 819.52 336.22 820.78 C 343.33 822.04 349.55 825.63 353.25 831.75 C 356.96 837.86 357.34 847.31 353.69 853.69 C 350.05 860.08 345.38 863.35 337.98 864.98 C 330.57 866.60 319.10 865.89 311.00 866.00
M 620.00 820.00 
C 620.46 825.51 612.40 822.01 609.00 823.00
C 609.00 849.33 609.00 875.67 609.00 902.00
C 612.67 902.00 616.33 902.00 620.00 902.00
C 618.62 907.65 609.57 904.30 604.00 905.00 C 598.43 905.70 590.76 904.47 585.00 905.00
C 584.54 899.49 592.60 902.99 596.00 902.00
C 596.00 875.67 596.00 849.33 596.00 823.00
C 592.00 823.00 588.00 823.00 584.00 823.00
C 585.55 817.39 594.20 820.65 600.00 820.00 C 605.80 819.35 613.98 820.49 620.00 820.00
M 695.00 832.00 
C 695.20 834.04 698.18 844.61 695.00 846.00
C 692.28 847.19 691.45 835.92 690.22 833.78 C 689.00 831.64 685.85 825.17 682.30 824.70 C 678.76 824.22 669.61 820.47 666.00 823.00
C 666.00 849.33 666.00 875.67 666.00 902.00
C 670.00 902.00 674.00 902.00 678.00 902.00
C 677.89 903.00 678.47 904.73 677.00 905.00
C 672.40 907.65 664.42 903.68 659.00 905.00 C 653.58 906.32 645.65 904.01 640.00 905.00
C 639.77 899.32 648.34 903.10 652.00 902.00
C 652.00 875.67 652.00 849.33 652.00 823.00
C 635.66 818.43 624.34 831.57 624.00 846.00
C 622.78 841.59 616.63 820.53 627.00 820.00 C 637.38 819.48 650.17 820.27 661.00 820.00 C 671.83 819.73 684.04 820.20 695.00 820.00
C 695.00 824.00 695.00 828.00 695.00 832.00
M 724.00 823.00 
C 724.00 835.00 724.00 847.00 724.00 859.00
C 728.92 862.45 739.93 857.20 746.00 859.00 C 752.07 860.80 761.61 857.65 768.00 859.00
C 768.00 847.00 768.00 835.00 768.00 823.00
C 764.00 823.00 760.00 823.00 756.00 823.00
C 757.55 817.39 766.20 820.65 772.00 820.00 C 777.80 819.35 785.98 820.49 792.00 820.00
C 792.46 825.51 784.40 822.01 781.00 823.00
C 781.00 849.33 781.00 875.67 781.00 902.00
C 784.67 902.00 788.33 902.00 792.00 902.00
C 790.62 907.65 781.57 904.29 776.00 905.00 C 770.43 905.71 762.76 904.47 757.00 905.00
C 756.54 899.49 764.60 902.99 768.00 902.00
C 768.00 889.00 768.00 876.00 768.00 863.00
C 753.33 863.00 738.67 863.00 724.00 863.00
C 723.13 875.92 725.17 889.11 724.00 902.00
C 725.91 902.00 733.33 900.95 734.00 903.00
C 734.86 905.64 721.74 905.12 718.00 905.00 C 714.26 904.88 703.39 905.09 699.00 905.00
C 698.54 899.49 706.60 902.99 710.00 902.00
C 710.00 875.67 710.00 849.33 710.00 823.00
C 706.00 823.00 702.00 823.00 698.00 823.00
C 699.55 817.39 708.20 820.65 714.00 820.00 C 719.80 819.35 727.98 820.49 734.00 820.00
C 734.66 825.30 727.15 822.14 724.00 823.00
M 831.00 820.00 
C 831.46 825.51 823.40 822.01 820.00 823.00
C 820.00 849.33 820.00 875.67 820.00 902.00
C 823.33 902.00 826.67 902.00 830.00 902.00
C 828.62 907.65 819.57 904.29 814.00 905.00 C 808.43 905.71 800.76 904.47 795.00 905.00
C 795.68 899.59 803.27 902.93 807.00 902.00
C 807.00 875.67 807.00 849.33 807.00 823.00
C 803.00 823.00 799.00 823.00 795.00 823.00
C 796.55 817.39 805.20 820.65 811.00 820.00 C 816.80 819.35 824.98 820.49 831.00 820.00 Z"/>
</g>
<g fill="#AB8A52" fill-opacity="1.00" stroke="None">
<path d="
M 700.00 97.00 
C 685.47 95.59 666.27 97.82 653.02 100.02 C 639.77 102.23 627.40 107.98 616.23 113.23 C 605.06 118.48 594.54 125.65 586.25 133.25 C 577.96 140.84 561.41 151.33 572.25 162.75 C 583.09 174.18 593.71 156.16 602.75 149.75 C 611.80 143.34 621.71 134.69 633.32 130.32 C 644.93 125.95 658.78 121.28 672.33 120.33 C 685.88 119.38 705.14 120.04 717.98 124.02 C 730.81 128.00 742.19 130.50 753.30 138.70 C 764.41 146.90 771.27 148.51 780.75 161.25 C 790.23 173.99 809.34 158.50 799.25 146.75 C 789.16 135.01 783.18 131.74 772.25 123.75 C 761.31 115.77 751.92 111.10 739.68 106.32 C 727.44 101.55 712.85 98.24 700.00 97.00 Z"/>
</g>
<g fill="#AB8953" fill-opacity="1.00" stroke="None">
<path d="
M 702.00 163.00 
C 714.43 165.53 725.60 169.80 736.00 177.00
C 744.19 182.68 752.56 199.40 764.30 192.30 C 776.05 185.21 766.79 171.09 757.25 164.75 C 747.71 158.41 739.52 150.85 728.07 146.93 C 716.62 143.00 702.76 138.68 690.00 139.00 C 677.24 139.32 659.96 139.39 649.22 144.22 C 638.48 149.05 626.42 153.12 618.75 160.75 C 611.07 168.37 595.35 175.27 602.23 187.77 C 609.11 200.27 623.70 188.03 631.25 180.25 C 638.80 172.47 651.06 169.14 661.78 164.78 C 672.50 160.42 690.15 160.59 702.00 163.00 Z"/>
</g>
<g fill="#7F8792" fill-opacity="1.00" stroke="None">
<path d="
M 220.00 164.00 
C 276.00 164.00 332.00 164.00 388.00 164.00
C 385.05 159.78 372.45 164.30 367.00 163.00 C 361.55 161.70 352.30 163.57 346.00 163.00 C 339.70 162.43 331.67 163.21 325.00 163.00 C 318.33 162.79 310.82 163.00 304.00 163.00 C 297.18 163.00 288.73 162.82 282.00 163.00 C 275.27 163.18 267.32 162.48 261.00 163.00 C 254.68 163.52 245.44 161.80 240.00 163.00 C 234.56 164.20 222.90 159.86 220.00 164.00 Z"/>
</g>
<g fill="#F7F2DF" fill-opacity="1.00" stroke="None">
<path d="
M 736.00 177.00 
C 725.60 169.80 714.43 165.53 702.00 163.00
C 709.89 170.51 725.39 167.53 731.00 178.00
C 732.55 177.90 735.23 176.79 736.00 177.00 Z"/>
</g>
<g fill="#0F2035" fill-opacity="1.00" stroke="None">
<path d="
M 437.00 741.00 
C 445.00 741.00 453.00 741.00 461.00 741.00
C 534.23 739.15 606.07 688.86 630.00 619.00
C 632.33 656.68 630.34 696.50 631.00 735.00
C 688.00 735.00 745.00 735.00 802.00 735.00
C 807.10 714.28 784.71 713.78 773.75 701.25 C 762.79 688.71 755.14 680.68 749.98 664.02 C 744.81 647.36 744.53 627.18 745.00 608.00 C 745.47 588.82 744.81 566.74 745.00 547.00 C 745.19 527.26 744.96 505.89 745.00 486.00 C 745.04 466.11 745.08 444.76 745.00 425.00 C 744.92 405.24 745.24 383.24 745.00 364.00 C 744.76 344.76 747.77 325.67 738.25 309.75 C 728.73 293.83 711.09 291.35 694.00 293.00
C 687.53 293.63 677.33 295.69 671.00 293.00
C 670.58 293.18 669.50 293.03 669.00 293.00
C 640.79 291.23 629.11 318.30 631.00 344.00 C 632.89 369.70 630.11 405.93 631.00 433.00 C 631.89 460.07 630.54 494.16 631.00 521.00 C 631.46 547.84 632.66 580.43 624.78 603.78 C 616.89 627.12 606.62 640.07 588.75 655.75 C 570.88 671.44 551.12 679.86 528.00 684.00 C 504.89 688.14 474.10 682.54 454.23 671.77 C 434.36 661.00 420.70 648.07 407.92 629.08 C 395.15 610.08 389.00 583.41 389.00 560.00
C 387.78 547.44 388.00 533.28 388.00 520.00
C 388.00 437.33 388.00 354.67 388.00 272.00
C 388.00 264.79 388.10 257.16 388.00 250.00 C 387.90 242.84 388.28 235.01 388.00 228.00 C 387.72 220.99 388.67 213.71 388.00 207.00 C 387.33 200.29 389.44 191.15 388.00 185.00 C 386.56 178.85 391.34 168.78 388.00 164.00
C 332.00 164.00 276.00 164.00 220.00 164.00
C 218.40 166.28 218.88 180.62 221.32 182.68 C 223.76 184.74 231.02 186.15 234.25 188.75 C 237.49 191.34 242.64 193.82 245.75 197.25 C 248.86 200.67 252.08 203.44 254.75 207.25 C 257.43 211.06 260.58 213.91 262.70 218.30 C 264.81 222.70 267.42 227.05 269.02 231.98 C 270.63 236.90 271.92 241.64 273.01 246.99 C 274.10 252.34 274.41 257.98 275.22 263.78 C 276.03 269.57 276.15 276.70 276.00 283.00 C 275.85 289.30 276.06 295.59 276.00 302.00 C 275.94 308.41 276.03 315.56 276.00 322.00 C 275.97 328.44 276.01 334.58 276.00 341.00 C 275.99 347.42 276.01 353.54 276.00 360.00 C 275.99 366.46 276.00 373.54 276.00 380.00 C 276.00 386.46 276.00 392.57 276.00 399.00 C 276.00 405.43 276.00 411.53 276.00 418.00 C 276.00 424.47 276.00 431.53 276.00 438.00 C 276.00 444.47 276.00 450.56 276.00 457.00 C 276.00 463.44 276.00 469.52 276.00 476.00 C 276.00 482.48 276.00 489.50 276.00 496.00 C 276.00 502.50 275.99 508.49 276.00 515.00 C 276.01 521.51 275.99 528.49 276.00 535.00 C 276.01 541.51 275.97 547.49 276.00 554.00 C 276.03 560.51 275.92 566.38 276.00 573.00 C 276.08 579.62 275.54 585.74 276.67 592.33 C 277.80 598.92 276.54 602.75 278.07 609.93 C 279.60 617.11 279.65 616.29 281.68 625.32 C 283.71 634.35 288.41 644.98 292.70 653.31 C 296.98 661.63 301.75 670.19 307.75 677.25 C 313.75 684.31 320.00 690.96 326.75 697.25 C 333.50 703.54 340.89 708.82 348.30 713.70 C 355.72 718.57 353.02 717.13 360.92 721.08 C 368.83 725.02 379.81 729.04 387.98 732.02 C 396.14 735.01 396.92 734.45 403.78 736.22 C 410.64 738.00 412.90 738.89 419.33 739.67 C 425.76 740.45 430.55 741.00 437.00 741.00
M 692.00 318.00 
C 706.13 321.02 699.68 345.50 685.33 340.67 C 670.98 335.84 676.90 314.77 692.00 318.00 Z"/>
</g>
<g fill="#AB8A54" fill-opacity="1.00" stroke="None">
<path d="
M 692.00 180.00 
C 680.73 178.64 661.76 182.35 653.08 188.08 C 644.40 193.81 627.71 201.30 633.70 214.30 C 639.69 227.30 654.44 218.01 662.75 209.75 C 671.07 201.49 689.24 203.06 700.31 205.69 C 711.37 208.33 718.27 225.35 730.92 219.92 C 743.58 214.50 735.64 198.21 725.23 192.77 C 714.82 187.33 703.72 181.42 692.00 180.00 Z"/>
</g>
<g fill="#AC8A54" fill-opacity="1.00" stroke="None">
<path d="
M 669.00 293.00 
C 669.50 293.03 670.58 293.18 671.00 293.00
C 676.59 290.62 687.48 291.41 694.00 292.00
C 694.01 281.87 694.51 267.73 694.00 258.00 C 693.49 248.27 701.14 238.40 695.75 230.25 C 690.36 222.09 678.40 222.78 673.26 230.26 C 668.11 237.73 672.30 252.63 671.00 262.00 C 669.70 271.37 673.41 285.04 669.00 293.00 Z"/>
</g>
<g fill="#AC8952" fill-opacity="1.00" stroke="None">
<path d="
M 412.00 384.00 
C 412.00 418.27 414.23 454.63 411.00 488.00
C 411.00 502.63 410.93 519.60 411.00 534.00 C 411.07 548.40 410.38 565.71 412.02 578.98 C 413.66 592.24 418.03 602.30 423.70 613.30 C 429.36 624.31 435.55 629.95 444.25 638.75 C 452.95 647.55 461.23 651.38 472.31 656.69 C 483.38 662.01 498.05 664.30 511.00 664.00 C 523.95 663.70 538.26 661.82 549.31 656.31 C 560.35 650.79 568.05 647.51 576.75 638.75 C 585.45 629.99 591.35 624.18 597.23 613.23 C 603.11 602.28 606.94 591.94 608.67 578.67 C 610.40 565.40 610.04 548.57 610.00 534.00 C 609.96 519.43 609.97 502.99 610.00 488.00 C 610.03 473.01 609.88 457.19 610.00 442.00 C 610.12 426.81 609.71 411.29 610.00 396.00 C 610.29 380.71 609.35 365.37 610.00 350.00 C 610.65 334.63 608.50 320.58 610.00 305.00 C 611.50 289.42 609.62 281.05 598.75 270.25 C 587.88 259.45 578.33 258.62 563.00 260.00 C 547.68 261.38 531.87 258.94 517.00 260.00 C 502.13 261.06 485.11 258.55 471.00 260.00 C 456.89 261.45 439.58 255.28 429.25 264.25 C 418.91 273.22 411.20 278.75 412.00 293.00 C 412.80 307.25 411.69 324.34 412.00 339.00 C 412.31 353.66 412.00 369.26 412.00 384.00
M 581.00 283.00 
C 593.40 288.80 586.83 305.10 588.00 317.00 C 589.17 328.90 587.44 345.08 588.00 358.00 C 588.56 370.92 586.49 385.61 587.00 399.00 C 587.51 412.39 586.81 426.46 587.00 440.00 C 587.19 453.54 586.97 468.51 587.00 482.00 C 587.03 495.49 587.13 509.81 587.00 523.00 C 586.87 536.19 587.36 552.51 587.00 565.00 C 586.64 577.49 584.10 588.04 579.23 598.23 C 574.36 608.41 569.85 614.03 561.75 621.75 C 553.66 629.48 545.16 632.80 534.98 636.98 C 524.79 641.15 509.86 641.98 498.78 640.22 C 487.70 638.46 477.09 635.37 468.25 628.75 C 459.41 622.12 453.96 617.52 447.70 608.30 C 441.44 599.08 436.76 590.84 435.01 578.99 C 433.25 567.15 434.11 552.01 434.00 539.00 C 433.89 525.99 433.99 511.46 434.00 498.00 C 434.01 484.54 433.87 469.63 434.00 456.00 C 434.13 442.37 433.65 428.66 434.00 415.00 C 434.35 401.34 433.23 386.58 434.00 373.00 C 434.77 359.42 432.24 345.32 434.00 332.00 C 435.76 318.68 430.18 302.74 434.00 290.00
C 437.68 277.70 454.44 282.41 465.00 282.00 C 475.56 281.59 492.42 281.64 504.00 282.00 C 515.58 282.36 531.35 280.63 543.00 282.00 C 554.65 283.37 570.85 278.25 581.00 283.00 Z"/>
</g>
<g fill="#939AA1" fill-opacity="1.00" stroke="None">
<path d="
M 388.00 520.00 
C 388.00 519.96 389.00 520.00 389.00 520.00
C 389.00 478.72 389.90 436.15 389.00 395.00 C 388.10 353.85 391.89 312.19 388.00 272.00
C 388.00 354.67 388.00 437.33 388.00 520.00 Z"/>
</g>
<g fill="#BAA886" fill-opacity="1.00" stroke="None">
<path d="
M 434.00 290.00 
C 438.16 278.72 454.61 283.50 465.00 283.00 C 475.39 282.50 492.49 282.67 504.00 283.00 C 515.51 283.33 530.20 281.55 542.00 283.00 C 553.80 284.45 569.60 279.59 581.00 283.00
C 570.85 278.25 554.65 283.37 543.00 282.00 C 531.35 280.63 515.58 282.36 504.00 282.00 C 492.42 281.64 475.56 281.59 465.00 282.00 C 454.44 282.41 437.68 277.70 434.00 290.00 Z"/>
</g>
<g fill="#FBFBF9" fill-opacity="1.00" stroke="None">
<path d="
M 434.00 290.00 
C 430.18 302.74 435.76 318.68 434.00 332.00 C 432.24 345.32 434.77 359.42 434.00 373.00 C 433.23 386.58 434.35 401.34 434.00 415.00 C 433.65 428.66 434.13 442.37 434.00 456.00 C 433.87 469.63 434.01 484.54 434.00 498.00 C 433.99 511.46 433.89 525.99 434.00 539.00 C 434.11 552.01 433.25 567.15 435.01 578.99 C 436.76 590.84 441.44 599.08 447.70 608.30 C 453.96 617.52 459.41 622.12 468.25 628.75 C 477.09 635.37 487.70 638.46 498.78 640.22 C 509.86 641.98 524.79 641.15 534.98 636.98 C 545.16 632.80 553.66 629.48 561.75 621.75 C 569.85 614.03 574.36 608.41 579.23 598.23 C 584.10 588.04 586.64 577.49 587.00 565.00 C 587.36 552.51 586.87 536.19 587.00 523.00 C 587.13 509.81 587.03 495.49 587.00 482.00 C 586.97 468.51 587.19 453.54 587.00 440.00 C 586.81 426.46 587.51 412.39 587.00 399.00 C 586.49 385.61 588.56 370.92 588.00 358.00 C 587.44 345.08 589.17 328.90 588.00 317.00 C 586.83 305.10 593.40 288.80 581.00 283.00
C 569.60 279.59 553.80 284.45 542.00 283.00 C 530.20 281.55 515.51 283.33 504.00 283.00 C 492.49 282.67 475.39 282.50 465.00 283.00 C 454.61 283.50 438.16 278.72 434.00 290.00
M 475.00 299.00 
C 475.00 323.00 475.00 347.00 475.00 371.00
C 505.67 371.00 536.33 371.00 567.00 371.00
C 567.00 378.33 567.00 385.67 567.00 393.00
C 529.00 393.00 491.00 393.00 453.00 393.00
C 453.00 361.67 453.00 330.33 453.00 299.00
C 460.33 299.00 467.67 299.00 475.00 299.00
M 566.00 299.00 
C 566.00 306.33 566.00 313.67 566.00 321.00
C 546.00 321.00 526.00 321.00 506.00 321.00
C 506.00 333.33 506.00 345.67 506.00 358.00
C 498.67 358.00 491.33 358.00 484.00 358.00
C 484.00 338.33 484.00 318.67 484.00 299.00
C 511.33 299.00 538.67 299.00 566.00 299.00
M 538.00 334.00 
C 539.19 341.36 536.42 344.19 538.00 352.00 C 539.58 359.81 532.06 359.34 526.00 359.00 C 519.94 358.66 513.17 360.58 514.00 353.00 C 514.83 345.42 513.37 341.27 514.00 334.00
C 522.00 334.00 530.00 334.00 538.00 334.00
M 536.00 408.00 
C 536.00 415.33 536.00 422.67 536.00 430.00
C 508.67 430.00 481.33 430.00 454.00 430.00
C 454.00 422.67 454.00 415.33 454.00 408.00
C 481.33 408.00 508.67 408.00 536.00 408.00
M 503.00 443.00 
C 504.78 455.82 504.51 468.67 490.00 466.00 C 475.49 463.33 467.88 468.00 454.00 466.00
C 454.00 458.33 454.00 450.67 454.00 443.00
C 470.33 443.00 486.67 443.00 503.00 443.00
M 502.00 478.00 
C 502.00 485.67 502.00 493.33 502.00 501.00
C 486.00 501.00 470.00 501.00 454.00 501.00
C 454.00 493.33 454.00 485.67 454.00 478.00
C 470.00 478.00 486.00 478.00 502.00 478.00 Z"/>
</g>
<g fill="#6A6653" fill-opacity="1.00" stroke="None">
<path d="
M 671.00 293.00 
C 678.62 292.49 686.39 293.68 694.00 293.00
C 694.00 293.00 694.00 292.50 694.00 292.00
C 687.48 291.41 676.59 290.62 671.00 293.00 Z"/>
</g>
<g fill="#091215" fill-opacity="1.00" stroke="None">
<path d="
M 694.00 293.00 
C 686.39 293.68 678.62 292.49 671.00 293.00
C 677.33 295.69 687.53 293.63 694.00 293.00 Z"/>
</g>
<g fill="#AA8851" fill-opacity="1.00" stroke="None">
<path d="
M 475.00 299.00 
C 467.67 299.00 460.33 299.00 453.00 299.00
C 453.00 330.33 453.00 361.67 453.00 393.00
C 491.00 393.00 529.00 393.00 567.00 393.00
C 567.00 385.67 567.00 378.33 567.00 371.00
C 536.33 371.00 505.67 371.00 475.00 371.00
C 475.00 347.00 475.00 323.00 475.00 299.00 Z"/>
</g>
<g fill="#A98750" fill-opacity="1.00" stroke="None">
<path d="
M 566.00 299.00 
C 538.67 299.00 511.33 299.00 484.00 299.00
C 484.00 318.67 484.00 338.33 484.00 358.00
C 491.33 358.00 498.67 358.00 506.00 358.00
C 506.00 345.67 506.00 333.33 506.00 321.00
C 526.00 321.00 546.00 321.00 566.00 321.00
C 566.00 313.67 566.00 306.33 566.00 299.00 Z"/>
</g>
<g fill="#F3F5F6" fill-opacity="1.00" stroke="None">
<path d="
M 692.00 318.00 
C 676.90 314.77 670.98 335.84 685.33 340.67 C 699.68 345.50 706.13 321.02 692.00 318.00 Z"/>
</g>
<g fill="#AB8954" fill-opacity="1.00" stroke="None">
<path d="
M 538.00 334.00 
C 530.00 334.00 522.00 334.00 514.00 334.00
C 513.37 341.27 514.83 345.42 514.00 353.00 C 513.17 360.58 519.94 358.66 526.00 359.00 C 532.06 359.34 539.58 359.81 538.00 352.00 C 536.42 344.19 539.19 341.36 538.00 334.00 Z"/>
</g>
<g fill="#CFBEA6" fill-opacity="1.00" stroke="None">
<path d="
M 411.00 488.00 
C 414.23 454.63 412.00 418.27 412.00 384.00
C 408.77 417.37 411.00 453.73 411.00 488.00 Z"/>
</g>
<g fill="#AA8850" fill-opacity="1.00" stroke="None">
<path d="
M 536.00 408.00 
C 508.67 408.00 481.33 408.00 454.00 408.00
C 454.00 415.33 454.00 422.67 454.00 430.00
C 481.33 430.00 508.67 430.00 536.00 430.00
C 536.00 422.67 536.00 415.33 536.00 408.00 Z"/>
</g>
<g fill="#AA8854" fill-opacity="1.00" stroke="None">
<path d="
M 503.00 443.00 
C 486.67 443.00 470.33 443.00 454.00 443.00
C 454.00 450.67 454.00 458.33 454.00 466.00
C 467.88 468.00 475.49 463.33 490.00 466.00 C 504.51 468.67 504.78 455.82 503.00 443.00 Z"/>
</g>
<g fill="#A98851" fill-opacity="1.00" stroke="None">
<path d="
M 502.00 478.00 
C 486.00 478.00 470.00 478.00 454.00 478.00
C 454.00 485.67 454.00 493.33 454.00 501.00
C 470.00 501.00 486.00 501.00 502.00 501.00
C 502.00 493.33 502.00 485.67 502.00 478.00 Z"/>
</g>
<g fill="#6F777F" fill-opacity="1.00" stroke="None">
<path d="
M 389.00 560.00 
C 389.00 546.67 389.00 533.33 389.00 520.00
C 389.00 520.00 388.00 519.96 388.00 520.00
C 388.00 533.28 387.78 547.44 389.00 560.00 Z"/>
</g>
<g fill="#757E87" fill-opacity="1.00" stroke="None">
<path d="
M 461.00 741.00 
C 453.00 741.00 445.00 741.00 437.00 741.00
C 444.48 741.72 453.45 741.73 461.00 741.00 Z"/>
</g>
<g fill="#132135" fill-opacity="1.00" stroke="None">
<path d="
M 443.00 902.00 
C 429.88 903.27 429.01 885.72 423.31 876.69 C 417.60 867.67 415.19 855.40 409.77 846.23 C 404.35 837.06 402.59 823.23 394.00 818.00
C 387.65 832.37 381.99 849.94 374.77 863.77 C 367.55 877.60 365.25 897.91 349.00 902.00
C 349.48 907.26 359.61 904.83 364.00 905.00 C 368.39 905.17 377.60 906.91 378.00 902.00
C 363.72 906.04 364.76 886.25 371.23 880.23 C 377.70 874.21 397.90 876.16 406.97 877.03 C 416.04 877.90 413.81 897.43 420.00 902.00
C 416.34 903.10 407.77 899.32 408.00 905.00
C 413.76 904.47 421.43 905.71 427.00 905.00 C 432.57 904.29 441.62 907.65 443.00 902.00
M 407.00 872.00 
C 406.87 874.78 397.09 874.85 393.00 874.00 C 388.91 873.15 377.11 876.45 375.00 873.00
C 373.51 870.58 379.58 863.26 379.98 859.98 C 380.37 856.69 384.45 851.26 385.77 847.77 C 387.09 844.28 388.87 837.60 392.00 836.00
C 396.10 848.30 402.33 859.89 407.00 872.00 Z"/>
</g>
<g fill="#132134" fill-opacity="1.00" stroke="None">
<path d="
M 500.00 818.00 
C 496.60 822.36 492.65 827.85 486.70 822.30 C 480.74 816.75 473.24 817.97 466.67 818.67 C 460.10 819.37 454.73 822.50 450.92 827.92 C 447.12 833.35 446.26 841.47 448.23 847.77 C 450.20 854.07 455.11 857.24 460.25 860.75 C 465.40 864.26 470.79 866.69 476.25 869.75 C 481.72 872.80 486.22 875.23 490.75 880.25 C 495.27 885.28 494.70 892.97 489.75 897.75 C 484.80 902.53 476.83 904.35 470.07 902.93 C 463.32 901.50 459.55 897.53 455.75 892.25 C 451.95 886.96 449.65 880.47 449.00 874.00
C 443.43 874.85 446.66 883.04 446.00 888.00 C 445.34 892.96 446.50 899.86 446.00 905.00
C 450.30 900.06 454.91 898.09 460.78 903.22 C 466.65 908.36 474.36 906.66 481.00 906.00 C 487.64 905.33 492.98 902.68 497.75 897.75 C 502.52 892.82 504.10 886.15 503.33 879.67 C 502.56 873.19 498.76 868.51 493.75 864.25 C 488.75 859.99 483.93 857.67 478.23 854.77 C 472.53 851.87 468.17 848.87 462.70 845.30 C 457.23 841.74 454.16 835.09 457.70 828.70 C 461.23 822.31 469.18 821.39 475.99 822.01 C 482.81 822.62 486.60 827.25 491.23 831.77 C 495.86 836.29 493.95 845.57 500.00 847.00
C 500.00 837.33 500.00 827.67 500.00 818.00 Z"/>
</g>
<g fill="#9199A4" fill-opacity="1.00" stroke="None">
<path d="
M 509.00 820.00 
C 514.83 820.24 521.23 819.68 527.00 820.00 C 532.77 820.32 539.43 819.40 545.00 820.00 C 550.57 820.60 557.93 818.71 563.00 820.00 C 568.07 821.29 577.05 817.15 581.00 820.00
C 577.69 816.59 567.93 819.78 563.00 819.00 C 558.07 818.22 550.15 818.98 545.00 819.00 C 539.85 819.02 530.69 818.29 526.00 819.00 C 521.31 819.71 511.46 816.49 509.00 820.00 Z"/>
</g>
<g fill="#122134" fill-opacity="1.00" stroke="None">
<path d="
M 231.00 820.00 
C 225.24 820.53 217.57 819.29 212.00 820.00 C 206.43 820.71 197.38 817.35 196.00 823.00
C 199.67 823.00 203.33 823.00 207.00 823.00
C 208.37 842.65 204.87 864.11 207.67 883.33 C 210.48 902.55 228.32 906.88 246.00 906.00 C 263.67 905.11 273.43 888.77 273.00 872.00 C 272.57 855.23 267.00 828.15 284.00 822.00
C 282.25 818.49 274.10 819.95 270.00 820.00 C 265.90 820.05 257.13 818.00 257.00 823.00
C 277.58 824.37 265.99 851.29 269.00 866.00 C 272.01 880.71 264.95 898.68 249.07 901.07 C 233.19 903.47 219.60 894.29 220.00 877.00 C 220.40 859.71 219.70 840.47 220.00 823.00
C 223.40 822.01 231.46 825.51 231.00 820.00 Z"/>
</g>
<g fill="#112034" fill-opacity="1.00" stroke="None">
<path d="
M 311.00 866.00 
C 319.10 865.89 330.57 866.60 337.98 864.98 C 345.38 863.35 350.05 860.08 353.69 853.69 C 357.34 847.31 356.96 837.86 353.25 831.75 C 349.55 825.63 343.33 822.04 336.22 820.78 C 329.11 819.52 317.64 819.54 310.00 820.00 C 302.36 820.46 289.50 817.32 286.00 823.00
C 290.00 823.00 294.00 823.00 298.00 823.00
C 298.00 849.33 298.00 875.67 298.00 902.00
C 294.60 902.99 286.54 899.49 287.00 905.00
C 292.76 904.47 300.43 905.71 306.00 905.00 C 311.57 904.29 320.62 907.65 322.00 902.00
C 318.33 902.00 314.67 902.00 311.00 902.00
C 311.00 890.00 311.00 878.00 311.00 866.00
M 311.00 863.00 
C 311.00 849.67 311.00 836.33 311.00 823.00
C 326.39 820.66 341.75 825.86 342.00 843.00 C 342.24 860.15 326.18 865.47 311.00 863.00 Z"/>
</g>
<g fill="#101F33" fill-opacity="1.00" stroke="None">
<path d="
M 581.00 820.00 
C 577.05 817.15 568.07 821.29 563.00 820.00 C 557.93 818.71 550.57 820.60 545.00 820.00 C 539.43 819.40 532.77 820.32 527.00 820.00 C 521.23 819.68 514.83 820.24 509.00 820.00
C 509.56 828.90 507.25 837.06 508.00 846.00
C 515.14 843.84 510.97 833.00 516.75 827.75 C 522.54 822.51 531.29 822.55 539.00 823.00
C 539.00 849.33 539.00 875.67 539.00 902.00
C 535.34 903.10 526.77 899.32 527.00 905.00
C 533.08 904.45 541.12 905.73 547.00 905.00 C 552.88 904.27 562.32 907.71 564.00 902.00
C 560.00 902.00 556.00 902.00 552.00 902.00
C 552.00 875.67 552.00 849.33 552.00 823.00
C 567.82 818.72 579.99 830.85 579.00 846.00
C 583.78 846.32 582.24 837.49 582.00 834.00 C 581.76 830.51 583.54 822.61 581.00 820.00 Z"/>
</g>
<g fill="#102136" fill-opacity="1.00" stroke="None">
<path d="
M 620.00 820.00 
C 613.98 820.49 605.80 819.35 600.00 820.00 C 594.20 820.65 585.55 817.39 584.00 823.00
C 588.00 823.00 592.00 823.00 596.00 823.00
C 596.00 849.33 596.00 875.67 596.00 902.00
C 592.60 902.99 584.54 899.49 585.00 905.00
C 590.76 904.47 598.43 905.70 604.00 905.00 C 609.57 904.30 618.62 907.65 620.00 902.00
C 616.33 902.00 612.67 902.00 609.00 902.00
C 609.00 875.67 609.00 849.33 609.00 823.00
C 612.40 822.01 620.46 825.51 620.00 820.00 Z"/>
</g>
<g fill="#0F1F33" fill-opacity="1.00" stroke="None">
<path d="
M 677.00 905.00 
C 675.92 900.63 668.76 904.76 666.00 902.00
C 662.43 898.43 665.76 888.31 665.00 883.00 C 664.24 877.69 664.91 868.53 665.00 863.00 C 665.09 857.47 664.01 848.00 665.00 843.00 C 665.99 838.00 662.14 825.71 666.00 823.00
C 669.61 820.47 678.76 824.22 682.30 824.70 C 685.85 825.17 689.00 831.64 690.22 833.78 C 691.45 835.92 692.28 847.19 695.00 846.00
C 695.00 841.33 695.00 836.67 695.00 832.00
C 695.00 828.00 695.00 824.00 695.00 820.00
C 684.04 820.20 671.83 819.73 661.00 820.00 C 650.17 820.27 637.38 819.48 627.00 820.00 C 616.63 820.53 622.78 841.59 624.00 846.00
C 624.34 831.57 635.66 818.43 652.00 823.00
C 652.00 849.33 652.00 875.67 652.00 902.00
C 648.34 903.10 639.77 899.32 640.00 905.00
C 645.65 904.01 653.58 906.32 659.00 905.00 C 664.42 903.68 672.40 907.65 677.00 905.00 Z"/>
</g>
<g fill="#122034" fill-opacity="1.00" stroke="None">
<path d="
M 734.00 903.00 
C 730.69 902.19 725.42 904.52 723.00 902.00
C 722.53 896.81 722.39 886.80 723.00 882.00 C 723.61 877.20 720.44 865.49 724.00 863.00
C 738.67 863.00 753.33 863.00 768.00 863.00
C 768.00 876.00 768.00 889.00 768.00 902.00
C 764.60 902.99 756.54 899.49 757.00 905.00
C 762.76 904.47 770.43 905.71 776.00 905.00 C 781.57 904.29 790.62 907.65 792.00 902.00
C 788.33 902.00 784.67 902.00 781.00 902.00
C 781.00 875.67 781.00 849.33 781.00 823.00
C 784.40 822.01 792.46 825.51 792.00 820.00
C 785.98 820.49 777.80 819.35 772.00 820.00 C 766.20 820.65 757.55 817.39 756.00 823.00
C 760.00 823.00 764.00 823.00 768.00 823.00
C 768.00 835.00 768.00 847.00 768.00 859.00
C 761.61 857.65 752.07 860.80 746.00 859.00 C 739.93 857.20 728.92 862.45 724.00 859.00
C 721.21 857.04 723.02 844.51 723.00 841.00 C 722.99 837.49 721.24 824.93 724.00 823.00
C 727.15 822.14 734.66 825.30 734.00 820.00
C 727.98 820.49 719.80 819.35 714.00 820.00 C 708.20 820.65 699.55 817.39 698.00 823.00
C 702.00 823.00 706.00 823.00 710.00 823.00
C 710.00 849.33 710.00 875.67 710.00 902.00
C 706.60 902.99 698.54 899.49 699.00 905.00
C 703.39 905.09 714.26 904.88 718.00 905.00 C 721.74 905.12 734.86 905.64 734.00 903.00 Z"/>
</g>
<g fill="#112034" fill-opacity="1.00" stroke="None">
<path d="
M 831.00 820.00 
C 824.98 820.49 816.80 819.35 811.00 820.00 C 805.20 820.65 796.55 817.39 795.00 823.00
C 799.00 823.00 803.00 823.00 807.00 823.00
C 807.00 849.33 807.00 875.67 807.00 902.00
C 803.27 902.93 795.68 899.59 795.00 905.00
C 800.76 904.47 808.43 905.71 814.00 905.00 C 819.57 904.29 828.62 907.65 830.00 902.00
C 826.67 902.00 823.33 902.00 820.00 902.00
C 820.00 875.67 820.00 849.33 820.00 823.00
C 823.40 822.01 831.46 825.51 831.00 820.00 Z"/>
</g>
<g fill="#F6F7F8" fill-opacity="1.00" stroke="None">
<path d="
M 311.00 863.00 
C 326.18 865.47 342.24 860.15 342.00 843.00 C 341.75 825.86 326.39 820.66 311.00 823.00
C 311.00 836.33 311.00 849.67 311.00 863.00 Z"/>
</g>
<g fill="#9299A3" fill-opacity="1.00" stroke="None">
<path d="
M 666.00 902.00 
C 666.00 875.67 666.00 849.33 666.00 823.00
C 662.14 825.71 665.99 838.00 665.00 843.00 C 664.01 848.00 665.09 857.47 665.00 863.00 C 664.91 868.53 664.24 877.69 665.00 883.00 C 665.76 888.31 662.43 898.43 666.00 902.00 Z"/>
</g>
<g fill="#8E96A3" fill-opacity="1.00" stroke="None">
<path d="
M 724.00 859.00 
C 724.00 847.00 724.00 835.00 724.00 823.00
C 721.24 824.93 722.99 837.49 723.00 841.00 C 723.02 844.51 721.21 857.04 724.00 859.00 Z"/>
</g>
<g fill="#747D8B" fill-opacity="1.00" stroke="None">
<path d="
M 695.00 846.00 
C 698.18 844.61 695.20 834.04 695.00 832.00
C 695.00 836.67 695.00 841.33 695.00 846.00 Z"/>
</g>
<g fill="#F5F7F8" fill-opacity="1.00" stroke="None">
<path d="
M 375.00 873.00 
C 379.34 872.17 386.99 874.11 391.00 873.00 C 395.01 871.89 404.87 875.48 407.00 872.00
C 402.33 859.89 396.10 848.30 392.00 836.00
C 388.87 837.60 387.09 844.28 385.77 847.77 C 384.45 851.26 380.37 856.69 379.98 859.98 C 379.58 863.26 373.51 870.58 375.00 873.00 Z"/>
</g>
<g fill="#969EAA" fill-opacity="1.00" stroke="None">
<path d="
M 723.00 902.00 
C 723.00 902.04 724.00 902.00 724.00 902.00
C 725.17 889.11 723.13 875.92 724.00 863.00
C 720.44 865.49 723.61 877.20 723.00 882.00 C 722.39 886.80 722.53 896.81 723.00 902.00 Z"/>
</g>
<g fill="#8D96A5" fill-opacity="1.00" stroke="None">
<path d="
M 375.00 873.00 
C 377.11 876.45 388.91 873.15 393.00 874.00 C 397.09 874.85 406.87 874.78 407.00 872.00
C 404.87 875.48 395.01 871.89 391.00 873.00 C 386.99 874.11 379.34 872.17 375.00 873.00 Z"/>
</g>
<g fill="#565D66" fill-opacity="1.00" stroke="None">
<path d="
M 677.00 905.00 
C 678.47 904.73 677.89 903.00 678.00 902.00
C 674.00 902.00 670.00 902.00 666.00 902.00
C 668.76 904.76 675.92 900.63 677.00 905.00 Z"/>
</g>
<g fill="#454A5F" fill-opacity="1.00" stroke="None">
<path d="
M 734.00 903.00 
C 733.33 900.95 725.91 902.00 724.00 902.00
C 724.00 902.00 723.00 902.04 723.00 902.00
C 725.42 904.52 730.69 902.19 734.00 903.00 Z"/>
</g>
</svg>